<?xml version="1.0" encoding="UTF-8" standalone="no"?>
<svg
   viewBox="0 0 764.99999 526.99997"
   version="1.1"
   id="svg19"
   sodipodi:docname="logo-white.svg"
   inkscape:export-filename="..\..\2\logo.svg"
   inkscape:export-xdpi="96"
   inkscape:export-ydpi="96"
   inkscape:version="1.3.2 (091e20e, 2023-11-25, custom)"
   width="201"
   height="150"
   xmlns:inkscape="http://www.inkscape.org/namespaces/inkscape"
   xmlns:sodipodi="http://sodipodi.sourceforge.net/DTD/sodipodi-0.dtd"
   xmlns="http://www.w3.org/2000/svg"
   xmlns:svg="http://www.w3.org/2000/svg">
  <sodipodi:namedview
     id="namedview19"
     pagecolor="#505050"
     bordercolor="#ffffff"
     borderopacity="1"
     inkscape:showpageshadow="0"
     inkscape:pageopacity="0"
     inkscape:pagecheckerboard="1"
     inkscape:deskcolor="#505050"
     inkscape:zoom="0.90509668"
     inkscape:cx="356.86795"
     inkscape:cy="355.21067"
     inkscape:window-width="1920"
     inkscape:window-height="1009"
     inkscape:window-x="-8"
     inkscape:window-y="-8"
     inkscape:window-maximized="1"
     inkscape:current-layer="svg19" />
  <defs
     id="defs1">
    <style
       id="style1">.cls-1{fill:#60a5a5;}</style>
  </defs>
  <path
     style="fill:#ffffff;fill-opacity:1;stroke:none;stroke-width:1.16133;stroke-linecap:butt;stroke-linejoin:miter;stroke-miterlimit:0.4;stroke-dasharray:none;stroke-opacity:1;paint-order:normal"
     d="m 423.44427,492.46119 c 0.61728,-2.9792 -0.39761,-7.376 -2.80806,-12.1628 -4.64396,-9.2231 -4.67429,-10.2236 -0.30872,-10.1823 2.45614,0.024 4.2393,1.788 6.11917,6.0557 1.72726,3.9216 3.02311,5.2879 3.71398,3.9161 0.58367,-1.1588 1.879,-3.8455 2.87854,-5.9706 2.0914,-4.4463 10.181,-5.7328 8.37508,-1.332 -5.81784,14.1774 -11.77272,23.5687 -15.17744,23.9361 -3.31763,0.358 -3.64589,-0.1426 -2.79267,-4.2602 z m 38.60956,0.277 c -7.899,-10.1845 -2.48892,-29.3071 8.2627,-29.2054 l 4.67913,0.044 -3.74213,3.677 c -7.96839,7.8296 -8.34935,17.6494 -1.02573,26.4407 3.0245,3.6307 3.00355,3.7357 -0.73878,3.7003 -2.40455,-0.024 -5.19789,-1.7723 -7.43519,-4.6569 z m 140.39834,0.6229 c 3.84851,-4.3603 4.50668,-6.4655 3.88957,-12.441 -0.45845,-4.438 -2.30053,-8.9144 -4.81005,-11.6883 l -4.0673,-4.4958 4.48308,0.042 c 3.49559,0.035 5.31531,1.3918 8.26137,6.1687 4.67752,7.5844 4.73983,14.0392 0.20973,21.7836 -2.762,4.7221 -4.43796,5.9559 -8.04399,5.9217 l -4.5552,-0.043 z m -427.16738,-6.4314 c -7.77611,-2.668 -11.00145,-9.1412 -8.19001,-16.4372 2.56049,-6.6448 6.83666,-8.6535 16.99211,-7.9824 6.24708,0.4128 7.71823,1.0592 8.1798,3.594 0.52456,2.8807 0.19276,2.9783 -4.88275,1.4352 -4.6102,-1.4016 -6.01429,-1.2592 -9.15314,0.9277 -2.03917,1.4209 -3.70759,4.2916 -3.70759,6.3796 0,2.088 1.66842,4.9903 3.70759,6.4497 3.11353,2.2282 4.56238,2.4098 9.04247,1.1325 4.71335,-1.3437 5.33488,-1.216 5.33488,1.0957 0,1.4392 -0.61037,2.8781 -1.35637,3.1976 -4.18603,1.793 -11.08473,1.8826 -15.96699,0.2076 z m 27.27004,0.6083 c -5.07875,-2.2955 -6.2703,-4.0558 -6.30202,-9.3105 -0.0349,-5.7964 5.44099,-10.1801 12.63176,-10.112 11.7804,0.1113 16.86777,11.1164 8.22045,17.7825 -4.82527,3.7198 -8.92596,4.182 -14.55019,1.64 z m 10.16099,-6.3322 c 0.59941,-6.9028 -2.24743,-10.2129 -6.46731,-7.5199 -2.82956,1.8057 -3.78736,7.2322 -1.58374,8.9725 2.44425,1.9306 7.84188,0.9567 8.05105,-1.4526 z m 43.64171,7.1028 c -2.23801,-0.7399 -4.06909,-2.3183 -4.06909,-3.5076 0,-2.5355 0.86375,-2.648 5.41334,-0.7049 3.7377,1.5963 9.60184,0.5173 8.03323,-1.4781 -0.55034,-0.7 -2.52207,-1.2872 -4.38167,-1.3047 -3.5429,-0.035 -9.0649,-3.586 -9.0649,-5.8317 0,-0.7207 1.67561,-2.6021 3.7236,-4.1809 4.73647,-3.6513 14.92127,-3.1876 15.86909,0.7225 0.50351,2.0768 -0.13858,2.4134 -3.13383,1.6433 -6.87793,-1.7686 -8.31978,0.8837 -1.81385,3.3365 6.55489,2.4713 8.89903,7.1424 4.87345,9.7113 -3.64609,2.3268 -10.95278,3.0808 -15.44937,1.5943 z m 24.15312,-0.5163 c -2.01248,-1.5895 -2.90331,-4.8604 -2.90331,-10.6599 0,-7.351 0.42739,-8.3626 3.52249,-8.3333 2.97424,0.028 3.60749,1.1872 4.06906,7.4475 0.46676,6.3305 1.07539,7.4193 4.16365,7.4486 3.08829,0.028 3.6969,-1.0481 4.16362,-7.3697 0.46155,-6.2517 1.09487,-7.3988 4.06911,-7.3706 3.15626,0.031 3.5225,1.0627 3.5225,9.9345 v 9.9012 l -4.97339,-0.311 c -2.73532,-0.1712 -6.71868,0.12 -8.85187,0.6473 -2.54325,0.6285 -4.87811,0.1691 -6.78186,-1.3345 z m 59.68028,0.5646 c -5.82009,-4.5967 -2.98086,-9.4281 6.58888,-11.2119 6.52933,-1.2169 4.24392,-3.9717 -2.47752,-2.9863 -3.70621,0.5434 -5.20619,0.2073 -5.20619,-1.1673 0,-4.0165 14.16763,-4.9537 18.86,-1.2477 1.88759,1.4908 2.84192,4.8247 2.84192,9.9281 0,7.5052 -0.11526,7.6763 -4.97335,7.3723 -2.73536,-0.1712 -6.71869,0.1201 -8.85193,0.6474 -2.54319,0.6285 -4.87807,0.169 -6.78181,-1.3346 z m 13.37312,-6.344 c 0,-1.4391 -6.06606,-1.7368 -7.82113,-0.3838 -0.65446,0.5045 -0.27501,1.786 0.84278,2.8478 1.53563,1.4584 2.63749,1.5447 4.50556,0.3525 1.36004,-0.8679 2.47279,-2.1354 2.47279,-2.8165 z m 47.59118,7.6695 c -8.73251,-2.8282 -10.45351,-12.3706 -3.03919,-16.8515 7.23242,-4.371 16.93676,-3.4143 16.93676,1.6698 0,2.253 -0.60177,2.4641 -3.49804,1.2271 -1.92396,-0.8217 -4.33681,-1.5019 -5.36186,-1.5116 -2.9837,-0.028 -5.91558,5.4321 -4.62587,8.6152 0.95631,2.3604 2.35897,2.8225 7.33412,2.4164 4.84368,-0.3955 6.15165,0 6.15165,1.8723 0,1.3059 -1.83107,2.7401 -4.06909,3.187 -4.90078,0.9785 -4.87322,0.9802 -9.82848,-0.6247 z m 132.90904,1.6369 c -1.68399,-0.3159 -3.94638,-2.6744 -5.02761,-5.2411 -3.43065,-8.144 3.03101,-16.0244 11.68296,-14.248 4.10232,0.8423 4.54472,0.5184 4.54472,-3.3275 0,-3.3198 0.79872,-4.2531 3.61698,-4.2264 3.36241,0.031 3.61697,0.975 3.61697,13.3981 v 13.3639 l -6.0455,-0.2346 c -3.32513,-0.129 -6.7839,0.063 -7.68617,0.4276 -0.90226,0.3642 -3.01826,0.4038 -4.70235,0.087 z m 10.88934,-9.2707 c 0.75549,-5.1364 -2.11601,-7.6559 -5.94233,-5.2141 -2.86602,1.829 -3.77828,7.2394 -1.52126,9.0221 2.7385,2.1628 6.89745,0.041 7.46359,-3.808 z m 28.79458,9.1687 c -3.67039,-1.7087 -4.20453,-7.3803 -0.89414,-9.4928 1.24886,-0.7971 4.49857,-1.8644 7.2215,-2.372 6.60588,-1.2312 4.20388,-3.9658 -2.60645,-2.9674 -4.3972,0.6447 -5.23036,0.3517 -4.73926,-1.6667 0.72075,-2.9625 10.40682,-3.9606 15.85484,-1.6338 3.0952,1.3219 3.7006,2.9613 3.7006,10.0207 0,8.3178 -0.0718,8.4365 -4.97343,8.1826 -2.73529,-0.1415 -6.19407,0.1161 -7.68607,0.5726 -1.49201,0.4566 -4.13696,0.1671 -5.87759,-0.6432 z m 11.30305,-6.239 c 0,-1.3143 -1.23045,-2.0459 -3.01496,-1.7927 -4.53717,0.6437 -5.16014,3.9356 -0.75275,3.9773 2.22144,0.021 3.76771,-0.8756 3.76771,-2.1846 z m -359.89021,-6.667 v -9.7157 l 9.49458,0.1441 c 5.22203,0.079 10.51186,0.7687 11.75521,1.5322 1.35343,0.8311 2.26062,4.7169 2.26062,9.6829 0,7.276 -0.43204,8.2906 -3.51789,8.2615 -2.91269,-0.028 -3.61274,-1.1853 -4.06913,-6.7293 -0.41532,-5.0454 -1.33137,-6.819 -3.71607,-7.1949 -2.67724,-0.422 -3.16485,0.6042 -3.16485,6.6608 0,6.6962 -0.29271,7.157 -4.52126,7.117 -4.38482,-0.041 -4.52121,-0.3361 -4.52121,-9.7585 z m 81.38218,-2.9211 c 0,-12.4661 0.25387,-13.4045 3.61701,-13.3727 3.36317,0.031 3.61697,0.9751 3.61697,13.441 0,12.4662 -0.25387,13.4046 -3.61697,13.3728 -3.36315,-0.031 -3.61701,-0.9751 -3.61701,-13.4411 z m 15.67362,12.6143 c -0.66313,-0.5237 -1.20563,-3.9688 -1.20563,-7.6556 0,-3.6869 -0.83066,-6.9275 -1.84588,-7.2011 -2.99941,-0.8086 2.3446,-8.1769 5.91496,-8.1557 1.74069,0.01 3.16489,0.9716 3.16489,2.1359 0,1.1761 1.60756,2.1321 3.61696,2.1511 2.00945,0.017 3.61701,0.9751 3.61701,2.1511 0,1.1761 -1.60756,2.1017 -3.61701,2.0827 -2.94596,-0.028 -3.61696,0.9066 -3.61696,5.0373 0,3.8845 0.84645,5.2522 3.61696,5.8438 6.08769,1.2999 4.3216,4.6835 -2.41132,4.6198 -3.31556,-0.031 -6.57087,-0.4856 -7.23398,-1.0093 z m 44.00668,-8.3199 v -9.6772 l 10.02134,0.095 c 11.85153,0.1122 13.48906,1.6094 13.48906,12.3329 0,6.2082 -0.47598,7.1446 -3.61697,7.1148 -2.96906,-0.028 -3.62197,-0.9823 -3.6447,-5.3266 -0.0347,-6.4663 -2.2669,-9.5398 -6.11948,-8.4225 -2.06527,0.5989 -2.89529,2.6727 -2.89529,7.2344 0,5.454 -0.53214,6.3899 -3.61695,6.3607 -3.26538,-0.031 -3.61701,-0.9751 -3.61701,-9.7114 z m 112.12662,8.6212 c 0,-1.1643 0.81383,-2.1092 1.80849,-2.0998 1.00468,0.01 1.80849,-3.7461 1.80849,-8.4503 0,-4.7042 -0.80381,-8.4751 -1.80849,-8.4847 -0.99466,-0.01 -1.80849,-0.9696 -1.80849,-2.1339 0,-1.5995 2.2104,-2.096 9.04245,-2.0314 6.83203,0.065 9.04243,0.603 9.04243,2.2025 0,1.1643 -1.22073,2.1053 -2.71273,2.0912 -2.10988,-0.021 -2.71273,1.856 -2.71273,8.4418 0,6.5859 0.60285,8.4732 2.71273,8.4933 1.492,0.014 2.71273,0.9782 2.71273,2.1424 0,1.5995 -2.2104,2.096 -9.04243,2.0314 -6.83205,-0.065 -9.04245,-0.603 -9.04245,-2.2025 z m 22.07138,-7.1976 0.53471,-9.5183 9.04253,-0.1187 c 4.97334,-0.065 10.05976,0.5358 11.30305,1.3356 1.34381,0.8646 2.26061,4.8183 2.26061,9.749 0,7.276 -0.43202,8.2906 -3.51788,8.2615 -2.91264,-0.028 -3.61272,-1.1853 -4.06918,-6.7293 -0.41522,-5.0454 -1.33135,-6.819 -3.71599,-7.1949 -2.67724,-0.4221 -3.16495,0.6042 -3.16495,6.6609 0,6.7304 -0.27571,7.1571 -4.6038,7.1161 -4.53085,-0.043 -4.59531,-0.1948 -4.0691,-9.5619 z m 57.50233,0.1889 c 0,-8.938 0.34443,-9.8755 3.61698,-9.8446 3.27245,0.031 3.61697,0.9751 3.61697,9.913 0,8.9379 -0.34452,9.8756 -3.61697,9.8445 -3.27255,-0.031 -3.61698,-0.975 -3.61698,-9.9129 z m 0,-14.1125 c 0,-1.8817 1.20563,-2.8112 3.61698,-2.7883 2.41125,0.024 3.61697,0.975 3.61697,2.8567 0,1.8817 -1.20572,2.8111 -3.61697,2.7883 -2.41135,-0.024 -3.61698,-0.9751 -3.61698,-2.8567 z m -121.1703,-14.9063 c -7.3e-4,-1.9021 1.51902,-2.4553 6.61298,-2.4072 3.64869,0.035 6.95783,-0.7194 7.3805,-1.6815 0.54443,-1.2394 -0.76053,-1.5204 -4.50844,-0.971 -7.16881,1.051 -11.29234,-2.4147 -11.29234,-9.491 0,-6.7499 4.59198,-9.4902 15.82428,-9.4433 l 7.68617,0.031 v 10.9828 c 0,13.0523 -2.3533,15.6318 -14.15826,15.5202 -5.97835,-0.056 -7.54395,-0.5839 -7.54489,-2.5412 z m 14.4691,-14.3962 c 0,-4.734 -2.73812,-6.518 -6.40892,-4.1754 -3.13821,2.0028 -3.4239,5.7914 -0.60463,8.0181 3.24705,2.5645 7.01355,0.5009 7.01355,-3.8427 z m 171.80702,16.5967 c 0,-1.3197 2.32734,-2.1631 6.64203,-2.4067 3.65313,-0.2063 6.9303,-1.0589 7.28266,-1.8944 0.39586,-0.9392 -1.36383,-1.3086 -4.61023,-0.9674 -6.22427,0.6539 -11.12295,-3.7352 -11.12295,-9.9659 0,-6.0301 5.44821,-9.2793 15.2112,-9.0717 l 8.29923,0.1764 v 11.7224 c 0,10.1453 -0.47073,11.9146 -3.49814,13.1503 -5.43509,2.2185 -18.2038,1.6972 -18.2038,-0.743 z m 14.12497,-15.2315 c 0.42183,-3.8919 -0.12383,-5.1844 -2.19699,-5.204 -4.27712,-0.041 -7.0244,5.0032 -4.63523,8.5094 2.89811,4.2533 6.18519,2.6629 6.83222,-3.3054 z m -482.07272,6.2199 c -2.6212,-0.4352 -4.06912,-1.6988 -4.06912,-3.551 0,-2.1837 0.76135,-2.6243 3.16486,-1.832 5.13267,1.692 8.14777,1.6004 8.99853,-0.2735 0.46695,-1.0285 -0.71056,-1.7708 -2.84104,-1.791 -3.75339,-0.036 -9.32235,-3.5206 -9.32235,-5.8341 0,-0.7207 1.67563,-2.6021 3.72362,-4.1809 4.62176,-3.5629 14.9206,-3.1916 15.83174,0.5707 0.49554,2.0462 -0.33883,2.3055 -4.95855,1.5407 -7.32272,-1.2121 -7.11913,1.1942 0.32324,3.8209 13.23772,4.672 4.4002,14.0626 -10.85097,11.5301 z m 23.5104,0.2224 c -2.51067,-0.4169 -4.0691,-1.7057 -4.0691,-3.3651 0,-2.3294 0.64458,-2.4921 4.81571,-1.2151 7.95448,2.4353 9.48153,-0.837 1.62129,-3.4742 -5.28865,-1.7744 -6.57577,-2.9108 -6.11559,-5.3995 0.77409,-4.1863 8.50437,-7.4021 14.72398,-6.1252 7.21857,1.4821 6.45364,5.3707 -0.81968,4.1667 -4.38512,-0.7259 -5.47664,-0.4887 -4.82348,1.0481 0.46433,1.0924 2.4044,2.2281 4.31132,2.5237 4.42332,0.6857 7.98837,2.9703 7.98837,5.1191 0,4.8873 -8.70213,8.2045 -17.63282,6.7215 z m 24.20645,-1.7256 c -9.55532,-5.9556 -4.19895,-18.2835 7.8943,-18.1691 12.09328,0.1145 17.44965,12.5437 7.89433,18.3185 -2.62081,1.584 -6.17326,2.8666 -7.89433,2.8503 -1.72105,-0.017 -5.27349,-1.3661 -7.8943,-2.9997 z m 12.39387,-5.3719 c 1.14312,-2.7998 -1.67255,-8.5367 -4.20148,-8.5606 -4.329,-0.041 -7.7469,7.7561 -4.5179,10.3064 2.4718,1.9523 7.63125,0.9192 8.71938,-1.7458 z m 17.83392,6.5416 c -14.73051,-5.1505 -5.2978,-22.3152 10.08889,-18.3588 2.09543,0.5389 3.74751,2.1713 3.74751,3.703 0,2.3475 -0.49647,2.4928 -3.47013,1.0155 -4.75477,-2.3622 -9.56565,0.742 -8.82864,5.6966 0.46062,3.0967 1.44013,3.6604 6.42115,3.6961 4.411,0.031 5.87762,0.6616 5.87762,2.5252 0,1.3659 -0.74727,2.4763 -1.66058,2.4677 -0.91334,-0.01 -2.74442,0.2683 -4.06913,0.6157 -1.32467,0.3472 -4.97269,-0.2652 -8.10669,-1.361 z m 33.01615,0.1839 c -5.8201,-4.5967 -2.98085,-9.4281 6.58888,-11.2119 6.60588,-1.2313 4.20393,-3.9659 -2.60641,-2.9674 -4.39728,0.6447 -5.23025,0.3517 -4.739,-1.6668 0.41836,-1.7193 2.66478,-2.5622 7.54025,-2.8294 10.18352,-0.5581 13.82336,2.6302 13.82336,12.1083 0,7.3765 -0.12435,7.5578 -4.97333,7.2544 -2.73536,-0.1712 -6.71868,0.1201 -8.85189,0.6474 -2.54325,0.6285 -4.87813,0.1691 -6.78186,-1.3346 z m 13.37312,-6.344 c 0,-1.4391 -6.06602,-1.7368 -7.8211,-0.3838 -0.6545,0.5045 -0.275,1.786 0.8428,2.8478 1.53558,1.4585 2.63749,1.5447 4.50551,0.3525 1.36003,-0.8679 2.47279,-2.1354 2.47279,-2.8165 z m 36.86568,7.001 c -12.65753,-4.4995 -7.70406,-19.2536 6.41928,-19.1199 4.75901,0.045 10.96987,4.8978 10.96987,8.5713 0,2.412 -1.2057,2.8112 -8.28894,2.7441 -5.84471,-0.055 -8.05714,0.4439 -7.50285,1.6931 0.47148,1.0626 3.78845,1.7511 8.28889,1.7207 6.13094,-0.041 7.5029,0.423 7.5029,2.5407 0,1.4253 -1.01729,2.5905 -2.26063,2.5894 -1.24334,0 -3.88825,0.2825 -5.87759,0.6307 -1.98934,0.348 -6.15226,-0.2684 -9.25093,-1.3701 z m 8.34667,-12.8545 c 0,-1.3143 -1.23045,-2.0458 -3.01501,-1.7926 -4.53708,0.6437 -5.16005,3.9356 -0.75268,3.9773 2.22144,0.021 3.76769,-0.8755 3.76769,-2.1847 z m 15.73114,13.3329 c -1.73488,-1.0063 -3.61609,-4.0549 -4.18059,-6.7745 -1.35125,-6.5107 4.87442,-13.2268 11.31388,-12.2053 3.67488,0.5829 4.26297,0.1193 4.26297,-3.3618 0,-3.3664 0.75198,-4.031 4.52121,-3.9952 4.50539,0.042 4.52124,0.09 4.52124,13.4496 v 13.4069 l -6.1818,-0.058 c -3.40003,-0.031 -7.28903,0.2624 -8.64224,0.655 -1.35326,0.3924 -3.87985,-0.1102 -5.61467,-1.1162 z m 11.39626,-9.4445 c 0,-6.0464 -0.0389,-6.0874 -4.37332,-4.8299 -2.84184,0.8241 -4.02591,7.6044 -1.655,9.4769 3.40977,2.6931 6.02832,0.6744 6.02832,-4.647 z m 163.66864,11.8195 c -6.23843,-1.238 -9.94668,-4.9208 -9.94668,-9.8781 0,-12.003 20.93589,-14.3301 24.5117,-2.7247 1.18883,3.8583 1.11908,3.8915 -7.98245,3.8054 -7.65312,-0.072 -8.99798,0.2889 -8.0773,2.1696 0.81409,1.6631 2.93878,2.1372 8.08146,1.8032 5.72826,-0.3721 6.97692,0 6.97692,2.0537 0,1.3789 -1.15408,2.4961 -2.56482,2.4828 -1.41064,-0.014 -3.64859,0.2075 -4.97334,0.4908 -1.32464,0.2832 -4.03616,0.192 -6.02549,-0.2028 z m 5.87843,-13.3906 c -1.13937,-2.6812 -6.78268,-3.1143 -6.78268,-0.5205 0,1.3091 1.54628,2.235 3.76762,2.256 2.21002,0.021 3.45652,-0.6966 3.01506,-1.7355 z m 20.34472,13.6896 c -9.34127,-2.8823 -12.23541,-12.1797 -5.42546,-17.4296 7.19289,-5.5447 19.89346,-2.2068 19.89346,5.2285 0,3.1305 -0.71811,3.4206 -8.28893,3.349 -5.83578,-0.055 -8.06136,0.4458 -7.51986,1.6929 0.45014,1.0366 3.88948,1.8009 8.29129,1.8425 5.95914,0.056 7.52165,0.5843 7.51976,2.5408 -6.6e-4,1.3584 -1.01958,2.4689 -2.26287,2.4676 -1.24338,0 -3.88835,0.2562 -5.87767,0.5716 -1.98934,0.3156 -4.83771,0.1971 -6.32972,-0.2635 z m 7.23396,-12.9926 c 0,-0.7304 -0.8528,-1.7473 -1.89504,-2.2599 -2.6544,-1.3053 -7.61594,0.3533 -6.25099,2.0896 1.42243,1.8096 8.14603,1.9501 8.14603,0.1705 z m -428.61292,7.5881 c 0,-0.5359 2.2023,-6.2307 4.89399,-12.6551 4.4613,-10.6478 5.30779,-11.6766 9.57396,-11.6362 4.26616,0.041 5.11267,1.0851 9.57393,11.8174 2.69172,6.4753 4.89401,12.2118 4.89401,12.7477 0,2.2352 -7.25963,0.6827 -9.04247,-1.9337 -1.10938,-1.6281 -3.78666,-2.8583 -6.27147,-2.8818 -2.74741,-0.024 -4.75629,0.9889 -5.48372,2.7706 -1.04015,2.5475 -8.13823,4.0922 -8.13823,1.7711 z m 16.79307,-11.59 c -1.43841,-4.306 -3.61457,-4.6435 -4.58027,-0.7105 -0.65413,2.664 -0.0942,3.5108 2.33662,3.5338 2.31476,0.021 2.93387,-0.7572 2.24365,-2.8233 z m 113.78794,4.2741 c 0.47415,-8.4417 0.94481,-9.5172 4.15177,-9.4868 3.20691,0.031 3.6776,1.1147 4.15174,9.5653 0.52863,9.4221 0.48118,9.5305 -4.15174,9.4866 -4.63297,-0.043 -4.68041,-0.153 -4.15177,-9.5651 z m 43.48456,8.1733 c -2.09524,-2.072 -3.99471,-15.8259 -2.71237,-19.6403 1.03431,-3.0767 9.49612,-3.5851 9.49612,-0.5706 0,1.0738 1.62769,2.2999 3.617,2.7247 1.98935,0.4247 3.61701,1.4668 3.61701,2.3156 0,0.8489 -1.62766,1.528 -3.61701,1.5092 -3.01412,-0.028 -3.617,0.9066 -3.617,5.6108 0,4.7042 0.60288,5.6508 3.617,5.6793 2.00945,0.017 3.61701,0.9751 3.61701,2.151 0,2.6532 -11.37665,2.8319 -14.01776,0.2201 z m 86.35748,-10.1201 v -12.7014 l 10.85095,0.1029 c 8.43965,0.08 10.85096,0.5731 10.85096,2.2195 0,1.5289 -2.0094,2.0979 -7.23398,2.0485 -6.02832,-0.057 -7.23398,0.402 -7.23398,2.754 0,2.2849 1.20566,2.8339 6.32979,2.8825 4.42074,0.041 6.32967,0.6983 6.32967,2.1767 0,1.4785 -1.90893,2.0988 -6.32967,2.057 -5.54607,-0.053 -6.32979,0.377 -6.32979,3.4683 0,3.1753 0.72344,3.535 7.23398,3.5966 5.22458,0.049 7.23398,0.6565 7.23398,2.1853 0,1.6465 -2.41131,2.094 -10.85096,2.0142 l -10.85095,-0.1029 z m 27.1274,3.0791 c 0,-8.938 0.34452,-9.8755 3.61699,-9.8446 1.98935,0.017 3.61696,0.6747 3.61696,1.4575 0,0.8428 1.47761,0.7171 3.62327,-0.3082 6.46377,-3.0889 9.86388,0.1891 10.47889,10.1024 0.4927,7.9416 0.22416,8.6757 -3.16487,8.6436 -3.23826,-0.031 -3.70331,-0.921 -3.70331,-7.0912 0,-6.1154 -0.48224,-7.0609 -3.61698,-7.0906 -3.13471,-0.031 -3.617,0.9067 -3.617,7.0221 0,6.1155 -0.48225,7.0517 -3.61696,7.0221 -3.27252,-0.031 -3.61699,-0.9751 -3.61699,-9.9131 z m 56.43282,0.8868 c 0.47412,-8.4416 0.94474,-9.517 4.15169,-9.4867 3.20696,0.031 3.67757,1.1148 4.15178,9.5653 0.52858,9.4221 0.48119,9.5305 -4.15178,9.4867 -4.63297,-0.043 -4.68035,-0.1531 -4.15169,-9.5653 z m 14.09846,-0.2193 c 0,-8.938 0.34452,-9.8755 3.61698,-9.8446 1.98933,0.017 3.61697,0.6917 3.61697,1.4952 0,1.0069 1.0868,1.0173 3.49805,0.035 8.26203,-3.3723 12.77834,0.4294 12.77834,10.7564 0,7.2311 -0.25372,7.6587 -4.52122,7.6184 -4.21984,-0.04 -4.52122,-0.5132 -4.52122,-7.0991 0,-6.1155 -0.48232,-7.0608 -3.61697,-7.0905 -3.13474,-0.031 -3.61698,0.9066 -3.61698,7.022 0,6.1155 -0.48233,7.0518 -3.61697,7.022 -3.27255,-0.031 -3.61698,-0.975 -3.61698,-9.9129 z m 83.19069,0.7871 c 0,-8.938 0.34452,-9.8755 3.61697,-9.8446 1.98934,0.017 3.61697,0.6536 3.61697,1.4106 0,0.885 1.61415,0.9127 4.52122,0.078 4.08552,-1.1735 4.52132,-0.9539 4.52132,2.2779 0,1.967 -0.7404,3.2124 -1.64539,2.7674 -4.19907,-2.0649 -7.39715,0.9868 -7.39715,7.0586 0,5.2588 -0.54887,6.1945 -3.61697,6.1654 -3.27255,-0.031 -3.61697,-0.975 -3.61697,-9.913 z m 18.45439,0.5275 c 0.47412,-8.4416 0.94484,-9.5171 4.15179,-9.4867 3.20694,0.031 3.67767,1.1147 4.15178,9.5653 0.52867,9.422 0.48119,9.5305 -4.15178,9.4867 -4.63298,-0.043 -4.68036,-0.1531 -4.15179,-9.5653 z m 14.09856,-0.017 v -9.6772 l 10.02134,0.095 c 11.85153,0.112 13.48899,1.6093 13.48899,12.333 0,6.2081 -0.47591,7.1445 -3.61688,7.1148 -2.96909,-0.028 -3.62207,-0.9823 -3.64473,-5.3267 -0.0349,-6.4663 -2.26692,-9.5398 -6.11949,-8.4226 -2.06532,0.599 -2.89529,2.6729 -2.89529,7.2346 0,5.454 -0.53215,6.3899 -3.61697,6.3607 -3.26537,-0.031 -3.61697,-0.975 -3.61697,-9.7114 z m -342.40818,-15.6731 c -2.74543,-2.1683 -0.93983,-4.7131 3.31559,-4.6728 3.31555,0.031 4.52123,0.7954 4.52123,2.8653 0,2.7536 -5.13847,3.9387 -7.83682,1.8075 z m 213.40218,2.0193 c -2.74539,-2.1685 -0.93973,-4.7131 3.31559,-4.6729 3.3156,0.031 4.52122,0.7954 4.52122,2.8653 0,2.7535 -5.13842,3.9387 -7.83681,1.8076 z m 115.74364,1.0951 c -2.74539,-2.1683 -0.93983,-4.713 3.31559,-4.6727 3.31559,0.031 4.52122,0.7954 4.52122,2.8652 0,2.7535 -5.13843,3.9387 -7.83681,1.8075 z M 170.30339,399.0695 c -0.66312,-0.52372 -1.20567,-7.17469 -1.20567,-14.77987 0,-16.41049 -0.34184,-16.13362 22.06637,-17.87524 50.48944,-3.92419 65.83341,-5.59234 64.74132,-7.03847 -0.49733,-0.65854 -11.42476,-1.19778 -24.28319,-1.19825 -18.66599,-6.6e-4 -23.78687,0.43049 -25.40253,2.13938 -2.00886,2.12489 -29.81771,4.78686 -34.86135,3.33715 -1.54598,-0.44441 -2.26062,-4.12335 -2.26062,-11.63783 0,-8.71781 0.59105,-11.15937 2.86066,-11.81762 1.57336,-0.45617 29.21467,-0.58016 61.42515,-0.27527 54.02907,0.51131 58.67446,0.74649 59.98448,3.03733 0.78102,1.3657 1.1832,15.02335 0.89381,30.35036 l -0.52625,27.86732 -12.89504,-0.1222 c -9.46114,-0.0894 -13.77584,-0.75232 -16.20239,-2.48887 -3.07743,-2.2025 -3.53708,-2.20683 -6.61452,-0.0631 -2.87568,2.00362 -8.73619,2.25293 -44.91091,1.91068 -22.88202,-0.21656 -42.14622,-0.82222 -42.80932,-1.34595 z m 87.08419,-18.34544 c -0.64885,-3.57121 0.99952,-3.49727 -28.60957,-1.28356 -28.12297,2.10259 -26.65415,3.93594 3.38106,4.22014 25.72775,0.24328 25.80465,0.23463 25.22851,-2.93658 z m 62.91281,18.47329 c -0.60373,-1.23352 -1.09772,-10.76406 -1.09772,-21.17919 v -18.93652 l -5.968,-0.0564 c -3.28241,-0.0311 -6.94464,-0.82777 -8.13823,-1.77041 -2.81101,-2.22019 -2.81101,-12.79233 0,-14.95927 1.60802,-1.23964 19.13716,-1.51246 67.67058,-1.05327 36.02521,0.34092 66.78769,1.01742 68.36106,1.50352 2.35312,0.72682 2.86066,3.47083 2.86066,15.46746 0,8.02118 -0.7164,14.92259 -1.59198,15.33662 -2.31033,1.0924 -71.33156,8.36624 -80.24237,8.45637 -1.74065,0.016 -3.16485,0.66709 -3.16485,1.44322 0,0.86559 8.74105,1.49402 22.60617,1.62516 19.55352,0.18514 23.05627,-0.13302 25.93949,-2.35566 3.81833,-2.94354 32.12525,-5.27068 35.14074,-2.88897 1.94427,1.53551 2.35561,18.91018 0.50274,21.23215 -0.83153,1.04208 -20.13327,1.33974 -61.49622,0.94839 -53.30305,-0.50444 -60.41144,-0.83014 -61.38207,-2.81307 z m 57.53019,-35.26177 c 6.0495,-0.68299 14.96291,-1.60164 19.80761,-2.04145 15.33408,-1.39212 6.48818,-2.73082 -16.49463,-2.4962 -20.53286,0.2097 -22.15402,0.42663 -22.15402,2.96574 0,3.18033 2.64171,3.40075 18.84104,1.57191 z m 92.70634,37.99326 c -0.6761,-0.53397 -1.22931,-10.07354 -1.22931,-21.19885 v -20.22798 l -5.27756,-0.0498 c -9.6956,-0.0922 -10.99883,-1.19101 -10.99883,-9.2772 0,-5.50061 0.75134,-7.67771 2.86065,-8.28949 1.57335,-0.45617 32.33575,-0.55062 68.36098,-0.2096 48.53353,0.45928 66.06264,1.06381 67.67073,2.33383 2.94928,2.32942 2.87574,20.14737 -0.0906,21.88824 -3.77139,2.21361 -32.21352,-0.41083 -34.81573,-3.21249 -1.8654,-2.00843 -5.87664,-2.40891 -26.03872,-2.5997 l -23.83351,-0.22568 0.52253,12.35347 0.52253,12.35337 22.42798,0.61026 c 20.09979,0.54677 22.82205,0.32965 26.22316,-2.09064 3.03705,-2.1613 7.04658,-2.76668 20.07165,-3.03056 l 16.27648,-0.32974 v 11.29005 11.29003 l -60.71165,-0.20311 c -33.3914,-0.11176 -61.26485,-0.64009 -61.94086,-1.17407 z M 236.91623,332.9838 c -50.15191,-7.42907 -74.14122,-28.98099 -62.50589,-56.15497 5.67106,-13.24476 22.93269,-32.81023 26.47703,-30.01087 0.5627,0.44439 -0.25609,3.73614 -1.81956,7.31489 -3.65665,8.37006 -3.63713,20.89711 0.0418,26.98226 6.5901,10.89944 24.42615,20.18105 49.56158,25.79116 19.69226,4.39504 68.10968,5.19769 99.00296,1.64106 85.78375,-9.87599 166.50261,-37.40455 211.16808,-72.01733 17.28399,-13.39389 24.58929,-22.19973 28.64545,-34.52944 3.63898,-11.06135 7.54506,-10.18889 7.38838,1.65019 -0.48705,36.80697 -71.71567,83.09517 -170.781,110.9829 -67.72202,19.06428 -136.70453,25.82691 -187.17909,18.35015 z m 58.81759,-29.42776 c -2.01217,-0.59992 -3.83387,-1.27162 -4.04818,-1.4927 -0.21414,-0.22126 -0.8247,-30.25406 -1.3564,-66.73998 l -0.9667,-66.33801 -8.13819,0.5384 c -4.47604,0.29607 -10.98663,0.55203 -14.468,0.56872 l -6.3297,0.0312 -0.52383,-11.57866 c -0.48687,-10.76157 -0.23169,-11.71776 3.617,-13.55087 2.27743,-1.08476 10.60098,-2.69017 18.49678,-3.56768 17.74535,-1.9721 19.10112,-1.04656 19.10112,13.03921 0,5.23919 0.86771,9.95244 1.92826,10.47393 1.06049,0.52154 13.31772,3.12714 27.23822,5.7903 13.9205,2.6631 26.27736,5.61125 27.45978,6.55141 3.20147,2.5455 2.4895,120.03296 -0.73665,121.5583 -6.36886,3.01137 -54.55296,6.72087 -61.27351,4.71724 z m -37.58047,-3.13544 c -1.70885,-1.34971 -2.24794,-14.03678 -2.24794,-52.90316 0,-45.30848 0.33442,-51.3854 2.93817,-53.3926 1.616,-1.24577 4.6678,-2.05608 6.78184,-1.8007 3.84321,0.46422 3.84368,0.47113 3.84368,54.79748 v 54.33324 l -4.53392,0.37057 c -2.49368,0.20366 -5.5455,-0.42833 -6.78183,-1.40483 z m -22.14137,-4.22176 c -3.4725,-2.74258 -3.61699,-4.73831 -3.61699,-49.96086 0,-50.75622 0.0571,-51.06018 9.39504,-49.93886 l 4.16868,0.50058 0.47563,50.00932 c 0.47597,50.04657 0.25127,52.201 -5.44901,52.23779 -0.746,0 -2.984,-1.27671 -4.97335,-2.84797 z m 159.1474,-5.52168 c -2.3652,-1.19024 -2.73804,-13.80092 -2.91028,-98.44082 -0.10876,-53.39169 -0.31218,-105.26021 -0.45208,-115.26346 l -0.25468,-18.18771 -7.88697,0.76894 c -12.82299,1.25022 -14.04773,-0.28497 -13.43345,-16.8378 l 0.52276,-14.08622 6.32973,-0.27525 c 3.48134,-0.15133 18.13015,2.20997 32.55286,5.24741 l 26.22317,5.52259 0.93354,13.12854 c 0.67269,9.45992 1.6834,13.50537 3.617,14.47713 1.47587,0.7417 11.31531,3.68526 21.86533,6.54115 10.55011,2.85591 20.49017,5.97663 22.08922,6.93492 2.61304,1.56605 2.93104,10.88081 3.1421,92.06473 0.12931,49.67732 -0.2946,91.34533 -0.94163,92.59549 -2.1041,4.06503 -46.10906,18.67462 -73.42711,24.37777 -15.78633,3.29566 -14.47478,3.19115 -17.96956,1.43249 z m 131.30925,-49.00109 c -0.6037,-1.23349 -1.09764,-19.52799 -1.09764,-40.65444 0,-27.99414 -0.58862,-38.87668 -2.17029,-40.12585 -1.19354,-0.94272 -5.26273,-1.74329 -9.04243,-1.77904 l -6.87225,-0.0648 v -14.02926 c 0,-8.48829 0.76832,-14.39251 1.94525,-14.94903 2.91737,-1.37936 20.67395,0.85378 24.52775,3.0847 2.65959,1.53961 3.55714,4.39907 4.27128,13.60796 l 0.90433,11.65875 12.26855,3.21425 c 6.74766,1.7679 12.85131,3.67462 13.56366,4.23724 0.71235,0.56264 1.29519,13.32322 1.29519,28.35683 v 27.33381 l -7.23394,5.81183 c -10.61288,8.52649 -24.26544,16.60615 -28.00059,16.5708 -1.79357,-0.0167 -3.75516,-1.04004 -4.35887,-2.27353 z M 332.03702,149.18095 c -1.41013,-2.06945 -2.67497,-34.78732 -2.0992,-54.30075 0.13255,-4.49661 6.19259,-7.10881 11.41893,-4.92227 2.8524,1.1934 3.16485,4.09413 3.16485,29.38407 0,15.43299 -0.49399,29.05983 -1.09773,30.2819 -1.49946,3.03499 -9.22162,2.7346 -11.38685,-0.44295 z m 25.30689,-1.31839 c -2.00973,-1.0118 -2.73001,-7.37298 -3.40003,-30.02743 -0.7475,-25.27587 -0.49726,-28.96882 2.0743,-30.6099 1.75034,-1.117 4.74895,-1.49165 7.46909,-0.93314 l 4.54472,0.93308 v 28.29096 c 0,32.3542 -1.52222,36.96104 -10.68808,32.34643 z"
     id="path3-1" />
</svg>
