<svg width="201" height="150" viewBox="0 0 201 150" fill="none" xmlns="http://www.w3.org/2000/svg">
<path d="M111.195 148.131C111.357 147.231 111.092 145.904 110.462 144.458C109.249 141.674 109.241 141.371 110.381 141.384C111.023 141.391 111.489 141.924 111.98 143.212C112.431 144.396 112.769 144.809 112.95 144.395C113.102 144.045 113.441 143.234 113.702 142.592C114.248 141.25 116.361 140.861 115.89 142.19C114.37 146.47 112.814 149.306 111.925 149.417C111.058 149.525 110.973 149.374 111.195 148.131ZM121.281 148.214C119.218 145.139 120.631 139.365 123.439 139.396L124.662 139.409L123.684 140.52C121.603 142.884 121.503 145.849 123.416 148.503C124.206 149.599 124.201 149.631 123.223 149.62C122.595 149.613 121.865 149.085 121.281 148.214ZM157.956 148.402C158.961 147.086 159.133 146.45 158.972 144.646C158.852 143.306 158.371 141.954 157.715 141.117L156.653 139.759L157.824 139.772C158.737 139.783 159.212 140.192 159.982 141.635C161.204 143.925 161.22 145.874 160.037 148.212C159.315 149.638 158.877 150.01 157.936 150L156.746 149.987L157.956 148.402ZM46.3714 146.46C44.3401 145.655 43.4976 143.7 44.232 141.498C44.9008 139.491 46.0178 138.885 48.6706 139.087C50.3025 139.212 50.6868 139.407 50.8074 140.173C50.9444 141.042 50.8577 141.072 49.5319 140.606C48.3276 140.183 47.9608 140.226 47.1409 140.886C46.6082 141.315 46.1724 142.182 46.1724 142.812C46.1724 143.443 46.6082 144.319 47.1409 144.76C47.9542 145.432 48.3327 145.487 49.503 145.102C50.7342 144.696 50.8965 144.734 50.8965 145.432C50.8965 145.867 50.7371 146.301 50.5422 146.398C49.4488 146.939 47.6467 146.966 46.3714 146.46ZM53.4948 146.644C52.1681 145.951 51.8569 145.42 51.8486 143.833C51.8395 142.083 53.2699 140.759 55.1483 140.78C58.2255 140.813 59.5545 144.136 57.2956 146.149C56.0352 147.272 54.964 147.412 53.4948 146.644ZM56.1491 144.732C56.3056 142.648 55.562 141.649 54.4597 142.462C53.7205 143.007 53.4703 144.645 54.046 145.171C54.6845 145.754 56.0944 145.46 56.1491 144.732ZM67.5491 146.877C66.9645 146.653 66.4862 146.177 66.4862 145.818C66.4862 145.052 66.7118 145.018 67.9003 145.605C68.8766 146.087 70.4085 145.761 69.9987 145.159C69.8549 144.947 69.3399 144.77 68.8541 144.765C67.9287 144.754 66.4862 143.682 66.4862 143.004C66.4862 142.786 66.9239 142.218 67.4589 141.742C68.6961 140.639 71.3566 140.779 71.6042 141.96C71.7357 142.587 71.568 142.688 70.7856 142.456C68.9889 141.922 68.6123 142.723 70.3118 143.463C72.024 144.209 72.6364 145.62 71.5848 146.395C70.6324 147.098 68.7237 147.326 67.5491 146.877ZM73.8584 146.721C73.3327 146.241 73.1 145.253 73.1 143.502C73.1 141.283 73.2116 140.977 74.0201 140.986C74.7971 140.995 74.9625 141.345 75.083 143.235C75.205 145.146 75.364 145.475 76.1707 145.484C76.9774 145.492 77.1364 145.167 77.2583 143.259C77.3789 141.371 77.5443 141.025 78.3212 141.033C79.1457 141.043 79.2414 141.354 79.2414 144.033V147.022L77.9422 146.928C77.2277 146.877 76.1872 146.965 75.6299 147.124C74.9656 147.314 74.3557 147.175 73.8584 146.721ZM89.448 146.891C87.9277 145.503 88.6694 144.045 91.1692 143.506C92.8748 143.139 92.2778 142.307 90.522 142.604C89.5539 142.769 89.162 142.667 89.162 142.252C89.162 141.039 92.8629 140.756 94.0886 141.875C94.5817 142.325 94.831 143.332 94.831 144.873C94.831 147.139 94.8009 147.191 93.5319 147.099C92.8173 147.047 91.7768 147.135 91.2196 147.294C90.5553 147.484 89.9453 147.345 89.448 146.891ZM92.9414 144.976C92.9414 144.541 91.3568 144.452 90.8983 144.86C90.7274 145.012 90.8265 145.399 91.1185 145.72C91.5196 146.16 91.8074 146.186 92.2954 145.826C92.6507 145.564 92.9414 145.182 92.9414 144.976ZM105.373 147.292C103.092 146.438 102.642 143.557 104.579 142.204C106.468 140.884 109.003 141.173 109.003 142.708C109.003 143.388 108.846 143.452 108.09 143.078C107.587 142.83 106.957 142.625 106.689 142.622C105.91 142.613 105.144 144.262 105.481 145.223C105.73 145.936 106.097 146.075 107.396 145.953C108.662 145.833 109.003 145.953 109.003 146.518C109.003 146.912 108.525 147.345 107.94 147.48C106.66 147.776 106.668 147.776 105.373 147.292ZM140.092 147.786C139.652 147.69 139.061 146.978 138.778 146.203C137.882 143.744 139.57 141.365 141.83 141.901C142.902 142.156 143.017 142.058 143.017 140.897C143.017 139.894 143.226 139.613 143.962 139.621C144.84 139.63 144.907 139.915 144.907 143.666V147.701L143.328 147.63C142.459 147.591 141.556 147.649 141.32 147.759C141.084 147.869 140.531 147.881 140.092 147.786ZM142.936 144.987C143.133 143.436 142.383 142.675 141.384 143.412C140.635 143.965 140.397 145.598 140.986 146.136C141.702 146.789 142.788 146.149 142.936 144.987ZM150.458 147.755C149.499 147.239 149.359 145.527 150.224 144.889C150.55 144.648 151.399 144.326 152.111 144.173C153.836 143.801 153.209 142.975 151.43 143.277C150.281 143.471 150.063 143.383 150.192 142.773C150.38 141.879 152.91 141.578 154.333 142.28C155.142 142.679 155.3 143.174 155.3 145.306C155.3 147.817 155.281 147.853 154.001 147.776C153.286 147.734 152.383 147.811 151.993 147.949C151.603 148.087 150.912 148 150.458 147.755ZM153.41 145.871C153.41 145.474 153.089 145.254 152.623 145.33C151.438 145.524 151.275 146.518 152.426 146.531C153.006 146.537 153.41 146.267 153.41 145.871ZM59.4 143.858V140.925L61.8802 140.968C63.2443 140.992 64.6261 141.2 64.9509 141.431C65.3044 141.682 65.5414 142.855 65.5414 144.355C65.5414 146.551 65.4285 146.858 64.6224 146.849C63.8616 146.84 63.6787 146.491 63.5595 144.817C63.451 143.294 63.2117 142.758 62.5888 142.645C61.8894 142.517 61.7621 142.827 61.7621 144.656C61.7621 146.678 61.6856 146.817 60.581 146.805C59.4356 146.792 59.4 146.703 59.4 143.858ZM80.6586 142.976C80.6586 139.212 80.7249 138.929 81.6034 138.939C82.482 138.948 82.5483 139.233 82.5483 142.997C82.5483 146.761 82.4819 147.044 81.6034 147.035C80.7249 147.025 80.6586 146.74 80.6586 142.976ZM84.7529 146.785C84.5796 146.627 84.4379 145.587 84.4379 144.474C84.4379 143.36 84.2209 142.382 83.9557 142.299C83.1722 142.055 84.5682 139.83 85.5008 139.837C85.9556 139.84 86.3276 140.13 86.3276 140.482C86.3276 140.837 86.7475 141.125 87.2724 141.131C87.7973 141.136 88.2172 141.426 88.2172 141.781C88.2172 142.136 87.7973 142.415 87.2724 142.41C86.5028 142.401 86.3276 142.683 86.3276 143.93C86.3276 145.103 86.5487 145.516 87.2724 145.695C88.8626 146.087 88.4013 147.109 86.6425 147.09C85.7764 147.08 84.9261 146.943 84.7529 146.785ZM96.2483 144.273V141.351L98.866 141.38C101.962 141.414 102.39 141.866 102.39 145.103C102.39 146.978 102.265 147.261 101.445 147.252C100.669 147.243 100.499 146.955 100.493 145.643C100.484 143.691 99.9006 142.763 98.8942 143.1C98.3547 143.281 98.1379 143.907 98.1379 145.285C98.1379 146.931 97.9989 147.214 97.1931 147.205C96.3401 147.196 96.2483 146.911 96.2483 144.273ZM125.538 146.876C125.538 146.524 125.751 146.239 126.01 146.242C126.273 146.245 126.483 145.111 126.483 143.691C126.483 142.27 126.273 141.132 126.01 141.129C125.751 141.126 125.538 140.836 125.538 140.484C125.538 140.001 126.115 139.852 127.9 139.871C129.685 139.891 130.262 140.053 130.262 140.536C130.262 140.888 129.943 141.172 129.553 141.167C129.002 141.161 128.845 141.728 128.845 143.716C128.845 145.705 129.002 146.275 129.553 146.281C129.943 146.285 130.262 146.576 130.262 146.928C130.262 147.411 129.685 147.56 127.9 147.541C126.115 147.521 125.538 147.359 125.538 146.876ZM131.303 144.703L131.443 141.829L133.805 141.793C135.104 141.773 136.433 141.955 136.758 142.196C137.109 142.457 137.348 143.651 137.348 145.14C137.348 147.337 137.235 147.643 136.429 147.634C135.668 147.626 135.486 147.276 135.366 145.602C135.258 144.079 135.019 143.544 134.396 143.43C133.696 143.303 133.569 143.613 133.569 145.441C133.569 147.473 133.497 147.602 132.366 147.59C131.183 147.577 131.166 147.531 131.303 144.703ZM146.324 144.76C146.324 142.061 146.414 141.778 147.269 141.787C148.124 141.797 148.214 142.082 148.214 144.78C148.214 147.479 148.124 147.762 147.269 147.753C146.414 147.743 146.324 147.458 146.324 144.76ZM146.324 140.499C146.324 139.931 146.639 139.65 147.269 139.657C147.899 139.664 148.214 139.951 148.214 140.519C148.214 141.088 147.899 141.368 147.269 141.361C146.639 141.354 146.324 141.067 146.324 140.499ZM114.672 135.998C114.672 135.424 115.069 135.257 116.4 135.271C117.353 135.282 118.217 135.054 118.327 134.764C118.47 134.389 118.129 134.305 117.15 134.47C115.277 134.788 114.2 133.741 114.2 131.605C114.2 129.567 115.399 128.739 118.334 128.754L120.341 128.763V132.079C120.341 136.02 119.727 136.799 116.643 136.765C115.081 136.748 114.672 136.589 114.672 135.998V135.998ZM118.452 131.651C118.452 130.222 117.736 129.683 116.778 130.391C115.958 130.995 115.883 132.139 116.62 132.812C117.468 133.586 118.452 132.963 118.452 131.651ZM163.331 136.662C163.331 136.264 163.939 136.009 165.066 135.936C166.02 135.874 166.876 135.616 166.968 135.364C167.072 135.08 166.612 134.969 165.764 135.072C164.138 135.269 162.859 133.944 162.859 132.063C162.859 130.242 164.282 129.261 166.832 129.324L169 129.377V132.916C169 135.98 168.877 136.514 168.086 136.887C166.666 137.557 163.331 137.399 163.331 136.662ZM167.021 132.064C167.131 130.889 166.988 130.498 166.447 130.492C165.33 130.48 164.612 132.003 165.236 133.062C165.993 134.346 166.852 133.866 167.021 132.064ZM41.094 133.942C40.4093 133.81 40.031 133.429 40.031 132.869C40.031 132.21 40.2299 132.077 40.8578 132.316C42.1985 132.827 42.9861 132.8 43.2083 132.234C43.3303 131.923 43.0227 131.699 42.4662 131.693C41.4858 131.682 40.031 130.63 40.031 129.931C40.031 129.714 40.4687 129.146 41.0037 128.669C42.211 127.593 44.9013 127.705 45.1393 128.841C45.2687 129.459 45.0508 129.538 43.844 129.307C41.9312 128.941 41.9843 129.667 43.9284 130.46C47.3864 131.871 45.0779 134.706 41.094 133.942ZM47.2353 134.009C46.5795 133.883 46.1724 133.494 46.1724 132.993C46.1724 132.289 46.3408 132.24 47.4304 132.626C49.5082 133.361 49.9071 132.373 47.8539 131.577C46.4724 131.041 46.1362 130.698 46.2564 129.947C46.4586 128.683 48.4779 127.712 50.1026 128.097C51.9882 128.545 51.7884 129.719 49.8884 129.355C48.743 129.136 48.4578 129.208 48.6285 129.672C48.7498 130.002 49.2565 130.344 49.7547 130.434C50.9101 130.641 51.8414 131.331 51.8414 131.979C51.8414 133.455 49.5682 134.457 47.2353 134.009ZM53.5585 133.488C51.0625 131.69 52.4617 127.967 55.6207 128.002C58.7797 128.036 60.1789 131.789 57.6828 133.533C56.9982 134.011 56.0703 134.398 55.6207 134.393C55.1711 134.388 54.2431 133.981 53.5585 133.488ZM56.7961 131.866C57.0947 131.02 56.3592 129.288 55.6985 129.281C54.5677 129.269 53.6749 131.623 54.5184 132.393C55.1641 132.982 56.5118 132.67 56.7961 131.866ZM61.4546 133.841C57.6067 132.286 60.0707 127.103 64.09 128.298C64.6374 128.461 65.069 128.953 65.069 129.416C65.069 130.125 64.9393 130.169 64.1625 129.722C62.9205 129.009 61.6638 129.947 61.8563 131.442C61.9766 132.377 62.2325 132.548 63.5336 132.558C64.6858 132.568 65.069 132.758 65.069 133.321C65.069 133.733 64.8738 134.069 64.6352 134.066C64.3966 134.063 63.9183 134.147 63.5722 134.252C63.2262 134.357 62.2733 134.172 61.4546 133.841ZM70.0791 133.896C68.5588 132.509 69.3004 131.05 71.8002 130.511C73.5258 130.139 72.8984 129.314 71.1194 129.615C69.9707 129.81 69.7531 129.721 69.8815 129.112C69.9907 128.593 70.5776 128.338 71.8511 128.258C74.5113 128.089 75.4621 129.052 75.4621 131.914C75.4621 134.141 75.4296 134.196 74.1629 134.104C73.4484 134.052 72.4079 134.14 71.8506 134.299C71.1863 134.489 70.5764 134.35 70.0791 133.896ZM73.5724 131.981C73.5724 131.546 71.9878 131.457 71.5294 131.865C71.3584 132.017 71.4575 132.404 71.7495 132.725C72.1507 133.165 72.4385 133.191 72.9265 132.831C73.2817 132.569 73.5724 132.187 73.5724 131.981ZM83.2024 134.095C79.896 132.736 81.19 128.282 84.8793 128.322C86.1224 128.335 87.7448 129.801 87.7448 130.91C87.7448 131.638 87.4299 131.759 85.5796 131.738C84.0528 131.722 83.4749 131.872 83.6197 132.25C83.7429 132.57 84.6093 132.778 85.7849 132.769C87.3864 132.757 87.7448 132.897 87.7448 133.536C87.7448 133.967 87.4791 134.318 87.1543 134.318C86.8295 134.318 86.1386 134.403 85.619 134.508C85.0993 134.614 84.0119 134.427 83.2024 134.095ZM85.3827 130.214C85.3827 129.817 85.0613 129.596 84.5952 129.672C83.41 129.867 83.2473 130.861 84.3985 130.873C84.9788 130.88 85.3827 130.609 85.3827 130.214ZM89.492 134.239C89.0388 133.935 88.5474 133.015 88.4 132.194C88.047 130.228 89.6733 128.2 91.3554 128.509C92.3153 128.685 92.469 128.545 92.469 127.494C92.469 126.477 92.6654 126.277 93.65 126.287C94.8269 126.3 94.831 126.315 94.831 130.348V134.396L93.2162 134.379C92.328 134.369 91.3122 134.458 90.9587 134.576C90.6052 134.695 89.9452 134.543 89.492 134.239ZM92.469 131.388C92.469 129.562 92.4588 129.55 91.3266 129.929C90.5842 130.178 90.2749 132.225 90.8942 132.791C91.7849 133.604 92.469 132.994 92.469 131.388ZM135.222 134.956C133.593 134.583 132.624 133.471 132.624 131.974C132.624 128.35 138.093 127.647 139.027 131.151C139.338 132.316 139.319 132.326 136.942 132.3C134.943 132.278 134.591 132.387 134.832 132.955C135.045 133.457 135.6 133.6 136.943 133.5C138.439 133.387 138.765 133.5 138.765 134.12C138.765 134.536 138.464 134.873 138.095 134.869C137.727 134.865 137.142 134.932 136.796 135.018C136.45 135.103 135.742 135.076 135.222 134.956ZM136.758 130.913C136.46 130.104 134.986 129.973 134.986 130.756C134.986 131.151 135.39 131.431 135.97 131.437C136.548 131.444 136.873 131.227 136.758 130.913ZM142.072 135.047C139.632 134.176 138.876 131.369 140.655 129.784C142.534 128.11 145.852 129.118 145.852 131.363C145.852 132.308 145.664 132.396 143.686 132.374C142.162 132.357 141.581 132.508 141.722 132.885C141.84 133.198 142.738 133.429 143.888 133.441C145.445 133.458 145.853 133.618 145.852 134.208C145.852 134.619 145.586 134.954 145.261 134.954C144.936 134.954 144.245 135.031 143.726 135.126C143.206 135.221 142.462 135.186 142.072 135.047ZM143.962 131.124C143.962 130.903 143.739 130.596 143.467 130.441C142.774 130.047 141.478 130.548 141.834 131.072C142.206 131.619 143.962 131.661 143.962 131.124ZM32 133.415C32 133.253 32.5753 131.534 33.2784 129.594C34.4438 126.379 34.6649 126.068 35.7793 126.081C36.8937 126.093 37.1148 126.408 38.2802 129.649C38.9833 131.604 39.5586 133.336 39.5586 133.497C39.5586 134.172 37.6623 133.704 37.1965 132.914C36.9068 132.422 36.2074 132.051 35.5583 132.044C34.8406 132.036 34.3159 132.342 34.1259 132.88C33.8542 133.649 32 134.116 32 133.415ZM36.3867 129.915C36.0109 128.615 35.4425 128.513 35.1902 129.701C35.0193 130.505 35.1656 130.761 35.8006 130.768C36.4053 130.774 36.567 130.539 36.3867 129.915ZM66.1103 131.206C66.2342 128.657 66.3571 128.332 67.1948 128.342C68.0325 128.351 68.1555 128.678 68.2793 131.23C68.4174 134.074 68.405 134.107 67.1948 134.094C65.9846 134.081 65.9722 134.048 66.1103 131.206ZM77.4693 133.674C76.922 133.048 76.4258 128.895 76.7608 127.744C77.031 126.815 79.2414 126.661 79.2414 127.571C79.2414 127.896 79.6665 128.266 80.1862 128.394C80.7058 128.522 81.131 128.837 81.131 129.093C81.131 129.35 80.7058 129.555 80.1862 129.549C79.3988 129.54 79.2414 129.823 79.2414 131.243C79.2414 132.663 79.3988 132.949 80.1862 132.958C80.7111 132.963 81.131 133.252 81.131 133.607C81.131 134.408 78.1592 134.462 77.4693 133.674ZM100.028 130.618V126.783L102.862 126.814C105.067 126.838 105.697 126.987 105.697 127.484C105.697 127.946 105.172 128.118 103.807 128.103C102.232 128.086 101.917 128.224 101.917 128.934C101.917 129.624 102.232 129.79 103.571 129.805C104.725 129.817 105.224 130.016 105.224 130.462C105.224 130.908 104.725 131.096 103.571 131.083C102.122 131.067 101.917 131.197 101.917 132.13C101.917 133.089 102.106 133.198 103.807 133.216C105.172 133.231 105.697 133.414 105.697 133.876C105.697 134.373 105.067 134.508 102.862 134.484L100.028 134.453V130.618ZM107.114 131.548C107.114 128.849 107.204 128.566 108.059 128.575C108.578 128.581 109.003 128.779 109.003 129.015C109.003 129.27 109.389 129.232 109.95 128.922C111.638 127.99 112.527 128.98 112.687 131.973C112.816 134.37 112.746 134.592 111.86 134.582C111.015 134.573 110.893 134.304 110.893 132.441C110.893 130.595 110.767 130.309 109.948 130.3C109.129 130.291 109.003 130.574 109.003 132.421C109.003 134.267 108.877 134.55 108.059 134.541C107.204 134.532 107.114 134.246 107.114 131.548ZM121.855 131.816C121.979 129.267 122.102 128.942 122.94 128.951C123.777 128.961 123.9 129.288 124.024 131.839C124.162 134.684 124.15 134.717 122.94 134.704C121.729 134.691 121.717 134.657 121.855 131.816ZM125.538 131.749C125.538 129.051 125.628 128.768 126.483 128.777C127.002 128.782 127.428 128.986 127.428 129.228C127.428 129.532 127.711 129.536 128.341 129.239C130.5 128.221 131.679 129.369 131.679 132.487C131.679 134.67 131.613 134.799 130.498 134.787C129.396 134.775 129.317 134.632 129.317 132.643C129.317 130.797 129.191 130.512 128.372 130.503C127.554 130.493 127.428 130.776 127.428 132.623C127.428 134.469 127.302 134.752 126.483 134.743C125.628 134.734 125.538 134.449 125.538 131.75V131.749ZM147.269 131.987C147.269 129.288 147.359 129.005 148.214 129.015C148.733 129.02 149.159 129.212 149.159 129.44C149.159 129.708 149.58 129.716 150.34 129.464C151.407 129.11 151.521 129.176 151.521 130.152C151.521 130.746 151.327 131.122 151.091 130.987C149.994 130.364 149.159 131.285 149.159 133.119C149.159 134.706 149.015 134.989 148.214 134.98C147.359 134.971 147.269 134.686 147.269 131.987ZM152.09 132.146C152.213 129.597 152.336 129.273 153.174 129.282C154.012 129.291 154.135 129.618 154.259 132.17C154.397 135.015 154.384 135.048 153.174 135.034C151.964 135.021 151.952 134.988 152.09 132.146ZM155.772 132.141V129.219L158.39 129.248C161.486 129.282 161.914 129.734 161.914 132.972C161.914 134.846 161.789 135.129 160.969 135.12C160.193 135.111 160.023 134.823 160.017 133.512C160.008 131.559 159.425 130.631 158.418 130.969C157.879 131.149 157.662 131.776 157.662 133.153C157.662 134.8 157.523 135.082 156.717 135.073C155.864 135.064 155.772 134.779 155.772 132.141ZM66.3287 127.409C65.6116 126.754 66.0832 125.986 67.1948 125.998C68.0609 126.007 68.3759 126.238 68.3759 126.863C68.3759 127.695 67.0336 128.052 66.3287 127.409ZM122.074 128.019C121.356 127.364 121.828 126.596 122.94 126.608C123.806 126.617 124.121 126.848 124.121 127.473C124.121 128.304 122.778 128.662 122.074 128.019ZM152.308 128.349C151.591 127.695 152.062 126.926 153.174 126.938C154.04 126.948 154.355 127.179 154.355 127.804C154.355 128.635 153.013 128.993 152.308 128.349ZM45.0701 119.933C44.8969 119.775 44.7552 117.766 44.7552 115.47C44.7552 110.515 44.6659 110.599 50.5193 110.073C63.7082 108.888 67.7163 108.385 67.431 107.948C67.3011 107.749 64.4467 107.586 61.0878 107.586C56.2119 107.586 54.8742 107.716 54.4521 108.232C53.9274 108.874 46.6632 109.677 45.3457 109.24C44.9418 109.105 44.7552 107.995 44.7552 105.726C44.7552 103.094 44.9096 102.356 45.5024 102.158C45.9134 102.02 53.1339 101.983 61.5479 102.075C75.6613 102.229 76.8748 102.3 77.217 102.992C77.421 103.404 77.5261 107.528 77.4505 112.155L77.313 120.569L73.9446 120.533C71.4731 120.506 70.346 120.305 69.7122 119.781C68.9083 119.116 68.7882 119.115 67.9843 119.762C67.2332 120.367 65.7023 120.442 56.2527 120.339C50.2755 120.274 45.2433 120.091 45.0701 119.933ZM67.8182 114.394C67.6487 113.315 68.0793 113.338 60.3448 114.006C52.9986 114.641 53.3822 115.194 61.228 115.28C67.9486 115.354 67.9687 115.351 67.8182 114.394ZM84.2522 119.971C84.0945 119.599 83.9655 116.721 83.9655 113.577V107.859L82.4065 107.842C81.5491 107.833 80.5925 107.592 80.2807 107.307C79.5464 106.637 79.5464 103.445 80.2807 102.791C80.7007 102.417 85.2797 102.334 97.9576 102.473C107.368 102.576 115.404 102.78 115.815 102.927C116.429 103.146 116.562 103.975 116.562 107.597C116.562 110.019 116.375 112.102 116.146 112.227C115.543 112.557 97.513 114.754 95.1853 114.781C94.7306 114.786 94.3586 114.982 94.3586 115.216C94.3586 115.478 96.6419 115.668 100.264 115.707C105.372 115.763 106.287 115.667 107.04 114.996C108.037 114.107 115.431 113.405 116.219 114.124C116.727 114.587 116.834 119.833 116.35 120.534C116.133 120.849 111.091 120.939 100.286 120.821C86.3626 120.668 84.5058 120.57 84.2522 119.971ZM99.2802 109.325C100.86 109.118 103.189 108.841 104.454 108.708C108.46 108.288 106.149 107.884 100.146 107.955C94.7821 108.018 94.3586 108.083 94.3586 108.85C94.3586 109.81 95.0487 109.877 99.2802 109.325ZM123.497 120.796C123.32 120.635 123.176 117.754 123.176 114.395V108.288L121.797 108.273C119.265 108.245 118.924 107.913 118.924 105.472C118.924 103.811 119.12 103.154 119.671 102.969C120.082 102.831 128.118 102.803 137.529 102.906C150.206 103.044 154.785 103.227 155.206 103.61C155.976 104.314 155.957 109.693 155.182 110.219C154.197 110.887 146.767 110.095 146.087 109.249C145.6 108.643 144.552 108.522 139.285 108.464L133.06 108.396L133.196 112.126L133.333 115.856L139.191 116.04C144.442 116.205 145.153 116.14 146.041 115.409C146.835 114.756 147.882 114.573 151.284 114.494L155.536 114.394V117.803V121.212L139.677 121.151C130.955 121.117 123.674 120.957 123.497 120.796ZM62.4707 99.9793C49.37 97.7362 43.1036 91.229 46.1429 83.0243C47.6243 79.0253 52.1334 73.1179 53.0592 73.9631C53.2062 74.0972 52.9923 75.0911 52.5839 76.1717C51.6287 78.6989 51.6338 82.4812 52.5949 84.3185C54.3163 87.6094 58.9754 90.4118 65.5413 92.1056C70.6853 93.4326 83.3329 93.675 91.4028 92.6011C113.811 89.6193 134.897 81.3075 146.564 70.8568C151.079 66.8128 152.987 64.154 154.047 60.4313C154.997 57.0915 156.018 57.3549 155.977 60.9295C155.85 72.0427 137.243 86.0186 111.365 94.4388C93.6751 100.195 75.6556 102.237 62.4707 99.9793ZM77.835 91.0941C77.3094 90.913 76.8335 90.7102 76.7775 90.6434C76.7216 90.5766 76.5621 81.5088 76.4232 70.4925L76.1707 50.4629L74.0448 50.6255C72.8756 50.7149 71.1749 50.7922 70.2655 50.7972L68.6121 50.8066L68.4752 47.3106C68.348 44.0614 68.4147 43.7727 69.4201 43.2192C70.015 42.8917 72.1892 42.407 74.2518 42.142C78.8872 41.5466 79.2414 41.826 79.2414 46.079C79.2414 47.6608 79.468 49.0839 79.7451 49.2414C80.0221 49.3988 83.2239 50.1856 86.8602 50.9897C90.4965 51.7937 93.7244 52.6839 94.0332 52.9677C94.8695 53.7363 94.6835 89.2095 93.8408 89.6701C92.1771 90.5793 79.5905 91.6991 77.835 91.0941ZM68.0182 90.1474C67.5718 89.7399 67.431 85.9093 67.431 74.1743C67.431 60.4942 67.5184 58.6594 68.1985 58.0533C68.6207 57.6772 69.4179 57.4325 69.9701 57.5096C70.974 57.6498 70.9741 57.6519 70.9741 74.0548V90.4597L69.7898 90.5716C69.1384 90.6331 68.3412 90.4422 68.0182 90.1474ZM62.2345 88.8727C61.3274 88.0447 61.2896 87.4421 61.2896 73.788C61.2896 58.463 61.3046 58.3713 63.7438 58.7098L64.8328 58.861L64.957 73.9604C65.0813 89.071 65.0226 89.7215 63.5336 89.7326C63.3387 89.7326 62.7541 89.3471 62.2345 88.8727ZM103.807 87.2056C103.189 86.8462 103.092 83.0386 103.047 57.4831C103.018 41.3625 102.965 25.7017 102.929 22.6814L102.862 17.19L100.802 17.4221C97.4522 17.7996 97.1323 17.3361 97.2927 12.3383L97.4293 8.08519L99.0827 8.00208C99.9921 7.95639 103.819 8.66934 107.586 9.58644L114.436 11.2539L114.68 15.2178C114.856 18.0741 115.12 19.2955 115.625 19.5889C116.01 19.8129 118.581 20.7016 121.337 21.5639C124.092 22.4262 126.689 23.3684 127.107 23.6578C127.789 24.1306 127.872 26.943 127.927 51.4551C127.961 66.4542 127.85 79.0351 127.681 79.4126C127.132 80.64 115.637 85.051 108.501 86.773C104.377 87.7681 104.72 87.7365 103.807 87.2056ZM138.107 72.4106C137.95 72.0381 137.821 66.5144 137.821 60.1357C137.821 51.6834 137.667 48.3976 137.254 48.0204C136.942 47.7358 135.879 47.4941 134.892 47.4833L133.097 47.4637V43.2278C133.097 40.6649 133.297 38.8823 133.605 38.7142C134.367 38.2978 139.005 38.972 140.012 39.6456C140.707 40.1105 140.941 40.9738 141.128 43.7543L141.364 47.2744L144.569 48.2449C146.331 48.7787 147.926 49.3544 148.112 49.5243C148.298 49.6942 148.45 53.547 148.45 58.0861V66.3391L146.56 68.0938C143.788 70.6683 140.222 73.1078 139.246 73.0971C138.778 73.092 138.265 72.783 138.107 72.4106ZM87.3181 44.4833C86.9497 43.8585 86.6193 33.9799 86.7697 28.0882C86.8043 26.7305 88.3874 25.9418 89.7526 26.602C90.4977 26.9623 90.5793 27.8382 90.5793 35.474C90.5793 40.1337 90.4503 44.2481 90.2925 44.6171C89.9009 45.5334 87.8837 45.4427 87.3181 44.4833ZM93.9287 44.0853C93.4037 43.7798 93.2156 41.8591 93.0406 35.019C92.8453 27.3874 92.9107 26.2724 93.5824 25.7769C94.0396 25.4397 94.8229 25.3266 95.5335 25.4952L96.7207 25.7769V34.3189C96.7207 44.0876 96.323 45.4786 93.9287 44.0853Z" fill="white"/>
</svg>
