<?xml version="1.0" encoding="UTF-8" standalone="no"?>
<svg
   viewBox="0 0 764.99999 526.99997"
   version="1.1"
   id="svg19"
   sodipodi:docname="logo.svg"
   inkscape:export-filename="logo.svg"
   inkscape:export-xdpi="96"
   inkscape:export-ydpi="96"
   inkscape:version="1.3.2 (091e20e, 2023-11-25, custom)"
   width="765"
   height="527"
   xml:space="preserve"
   xmlns:inkscape="http://www.inkscape.org/namespaces/inkscape"
   xmlns:sodipodi="http://sodipodi.sourceforge.net/DTD/sodipodi-0.dtd"
   xmlns="http://www.w3.org/2000/svg"
   xmlns:svg="http://www.w3.org/2000/svg"><sodipodi:namedview
     id="namedview19"
     pagecolor="#505050"
     bordercolor="#ffffff"
     borderopacity="1"
     inkscape:showpageshadow="0"
     inkscape:pageopacity="0"
     inkscape:pagecheckerboard="1"
     inkscape:deskcolor="#505050"
     inkscape:zoom="0.64"
     inkscape:cx="435.15625"
     inkscape:cy="263.28125"
     inkscape:window-width="1920"
     inkscape:window-height="1009"
     inkscape:window-x="-8"
     inkscape:window-y="-8"
     inkscape:window-maximized="1"
     inkscape:current-layer="svg19" /><defs
     id="defs1"><style
       id="style1">.cls-1{fill:#60a5a5;}</style></defs><path
     style="fill:#00f6ff;fill-opacity:1;fill-rule:nonzero"
     d="M 126,500.67244 V 483.325 h 34.375 c 18.90625,0 34.375,-0.0568 34.375,-0.12631 0,-0.0695 -0.21729,-0.73944 -0.48288,-1.48882 -1.06633,-3.00883 -1.0791,-3.67673 -0.79517,-41.57956 0.14856,-19.83133 0.34539,-49.12993 0.43741,-65.10799 l 0.16729,-29.05102 H 212.41333 230.75 v 10.09953 10.09954 h 18 18 V 338.7306 311.29083 l -6.8125,-9.74746 -6.8125,-9.74747 -11.1875,-0.003 -11.1875,-0.003 v 10.81245 10.81244 h -9.5 -9.5 v 3.08927 3.08927 h 12.75 12.75 v -10.81244 -10.81245 l 6.1875,0.004 6.1875,0.004 5.1875,7.44623 5.1875,7.44623 v 23.56137 23.56136 H 248.625 237.25 v -10.09954 -10.09953 l -49.5625,-3.7e-4 c -46.68618,-3.5e-4 -49.61308,-0.0245 -50.43402,-0.41587 -0.47934,-0.22852 -1.01206,-0.68283 -1.18382,-1.00958 -0.41599,-0.79136 -0.45385,-16.19771 -0.0426,-17.3192 0.55366,-1.50966 -0.24883,-1.45406 20.98638,-1.45406 h 19.28832 l -0.80879,-0.87559 c -1.096,-1.18655 -1.90605,-2.92515 -2.23975,-4.80721 -0.15263,-0.86081 -1.68799,-28.29917 -3.41191,-60.97414 -3.33983,-63.3029 -3.36256,-63.95256 -2.47114,-70.64795 3.29991,-24.78526 16.98035,-44.89705 35.25479,-51.82851 8.96633,-3.40092 16.35575,-3.83654 34.375,-2.02646 23.39994,2.35057 43.7041,7.17664 50.625,12.033 3.72819,2.61605 10.95587,11.78653 16.81625,21.33645 4.71778,7.68799 6.35144,10.7189 20.36557,37.78415 2.26712,4.37845 4.33492,8.18908 4.59511,8.46808 0.32263,0.34594 9.34613,3.6144 28.3747,10.27776 15.3459,5.37377 28.10267,9.7705 28.34837,9.7705 0.2457,0 13.00247,-4.39673 28.34837,-9.7705 18.94294,-6.63338 28.05496,-9.93337 28.37917,-10.27776 0.26264,-0.279 2.38317,-4.19657 4.71229,-8.70572 16.47019,-31.88615 20.75284,-39.38409 27.84931,-48.75788 3.61887,-4.7802 10.0228,-11.74086 10.43837,-11.34584 0.0639,0.0607 -0.0442,1.55186 -0.24023,3.3136 -0.41594,3.7382 -0.47118,11.90998 -0.11018,16.29806 0.43893,5.3352 1.94396,17.09657 2.16131,16.88997 0.05,-0.0475 0.59979,-1.84099 1.22182,-3.98553 2.4986,-8.61431 4.7083,-14.63371 8.49744,-23.1477 1.27969,-2.8754 3.07157,-7.40698 3.98194,-10.07018 1.89321,-5.53834 2.48327,-6.81947 3.44916,-7.48871 0.64482,-0.44678 0.78837,-0.45693 2.25,-0.15897 2.82388,0.57567 4.01167,0.71447 8.42603,0.98461 4.53875,0.27775 5.42432,0.4412 5.66857,1.04623 0.25601,0.63416 -0.0752,1.30647 -3.88192,7.88085 l -3.73589,6.452 -0.87906,3.64754 c -2.09949,8.7115 -3.43677,16.80509 -4.24453,25.68915 -0.17533,1.9283 -0.23632,3.4254 -0.13554,3.32691 0.10078,-0.0985 1.14341,-1.80144 2.31694,-3.78432 11.94267,-20.179 22.55389,-34.92831 34.48429,-47.9322 l 0.8449,-0.92092 6.09872,0.12176 c 8.07028,0.16113 11.58305,0.77033 17.59872,3.05207 18.27956,6.93341 31.96361,27.05109 35.25376,51.82851 0.85715,6.45503 0.82593,7.47668 -2.34784,76.82649 -1.65685,36.20387 -3.05007,66.49357 -3.09604,67.31044 l -0.0836,1.48523 h 9.83238 c 10.63403,0 10.82906,0.0209 12.06632,1.29549 l 0.625,0.64384 0.0649,35.77278 c 0.0645,35.56172 0.0619,35.77737 -0.44144,36.55155 -1.08644,1.67096 3.32741,1.54237 -52.91125,1.54139 -50.16181,-8.8e-4 -50.72106,-0.006 -51.52701,-0.4731 -0.44813,-0.25972 -1.03833,-0.82074 -1.31156,-1.2467 -0.48983,-0.76366 -0.49679,-1.2701 -0.49772,-36.20655 l -9.3e-4,-35.43205 0.56748,-0.80746 c 1.21013,-1.72187 0.1278,-1.63841 21.25249,-1.63882 l 18.94497,-3.7e-4 -0.07,-3.02986 -0.07,-3.02986 h -20 -20 l -1.40295,0.65522 c -1.57371,0.73497 -3.64623,2.67764 -4.44563,4.1671 -1.32736,2.47315 -1.27642,0.88639 -1.27642,39.76321 0,34.77148 0.0169,36.10112 0.47582,37.5028 0.78558,2.39925 2.74271,4.3907 5.27418,5.36667 0.84432,0.32552 2.01381,0.45972 4.6875,0.53789 l 3.5625,0.10416 -0.007,2.64698 c -0.004,1.45584 -0.22782,16.44176 -0.49823,33.30205 -0.52667,32.83821 -0.53214,32.9448 -1.84985,36.04579 l -0.58722,1.3819 h 7.46251 7.46251 l -0.47153,-0.77232 c -0.72577,-1.18873 -1.43671,-3.48474 -1.87291,-6.04862 -0.34251,-2.01315 -5.6387,-63.88762 -5.6387,-65.8759 v -0.73273 h 25.8451 25.8451 l 0.16245,13.60467 c 0.0893,7.48257 0.18718,23.01506 0.2174,34.51665 0.0547,20.81184 0.0524,20.92052 -0.48619,22.69425 -0.29762,0.98025 -0.61904,1.96941 -0.71425,2.19814 -0.16429,0.3947 1.39318,0.41586 30.60364,0.41586 H 639 v 17.34744 17.34744 H 382.5 126 Z M 251.85466,481.9431 c -1.35649,-3.19224 -1.3032,-1.84079 -2.10065,-53.27442 -0.40833,-26.33602 -0.75391,-49.86201 -0.76795,-52.27995 -0.014,-2.41795 -0.0716,-4.28934 -0.12796,-4.15864 -0.0563,0.1307 -2.01427,23.122 -4.35099,51.09178 -2.33672,27.96978 -4.42707,51.90176 -4.64523,53.18219 -0.43696,2.56462 -1.14807,4.86047 -1.87349,6.04862 l -0.47153,0.77232 h 7.46251 7.46251 z M 477,483.23639 c 0,-0.0487 -0.23681,-0.59749 -0.52625,-1.21945 -1.08488,-2.33126 -1.4623,-5.07269 -1.83194,-13.30656 -0.19363,-4.3131 -1.66157,-40.35062 -3.2621,-80.08339 -1.60052,-39.73277 -2.96457,-72.58894 -3.03121,-73.01371 l -0.12116,-0.77232 h -2.32247 -2.32247 l -0.1662,-21.07011 c -0.0914,-11.58856 -0.1822,-30.48954 -0.20177,-42.00219 -0.0196,-11.51265 -0.10393,-25.04913 -0.1875,-30.08108 l -0.15193,-9.14899 -1.95977,16.3969 c -1.07787,9.01829 -2.01436,16.62301 -2.0811,16.89938 -0.1036,0.42906 -4.31035,1.97249 -28.79023,10.56295 -15.7679,5.53326 -29.5689,10.32387 -30.6689,10.6458 -1.73042,0.50643 -2.48861,0.58588 -5.625,0.58947 -2.96938,0.003 -3.98485,-0.0901 -5.61466,-0.51702 l -1.98966,-0.52117 -2.13534,0.53764 c -3.11142,0.7834 -8.2799,0.74101 -11.13534,-0.0913 -1.1,-0.32064 -14.90126,-5.11116 -30.66948,-10.6456 -24.42615,-8.57327 -28.68727,-10.13667 -28.78975,-10.56292 -0.0661,-0.27516 -1.00238,-7.8789 -2.08052,-16.89719 l -1.96025,-16.3969 -0.16927,4.63391 c -0.0931,2.54864 -0.29341,8.80442 -0.44515,13.90171 -0.41983,14.10367 -0.86276,22.32281 -2.76619,51.32941 -2.23392,34.0431 -1.79808,24.83059 -5.48626,115.96645 -1.63968,40.51697 -3.05182,74.68311 -3.13809,75.92476 -0.24854,3.57729 -0.77889,5.87328 -1.98982,8.61431 -0.17477,0.39562 4.24162,0.41586 90.71803,0.41586 49.99596,0 90.90175,-0.0399 90.90175,-0.0886 z M 246.80443,121.27023 c -7.41204,-1.02676 -17.23601,-5.75228 -24.00126,-11.54506 -5.93492,-5.08182 -8.92011,-9.929481 -11.54716,-18.751461 -1.4032,-4.7121 -3.75601,-15.2521 -3.75601,-16.82593 0,-0.36812 1.01548,-0.33103 12.9375,0.47252 7.11562,0.47959 25.70625,1.70391 41.3125,2.72071 15.60625,1.01679 28.44542,1.91005 28.53149,1.98502 0.2384,0.20766 -0.46703,6.80715 -1.17033,10.94875 -1.36575,8.04273 -3.05489,12.242681 -6.65627,16.550501 -2.98837,3.57458 -7.24065,7.04927 -11.63574,9.508 -8.00827,4.48003 -15.77981,6.0777 -24.01472,4.93695 z m 268.3193,0.009 c -2.47663,-0.34393 -6.55166,-1.56026 -9.48651,-2.83157 -7.87052,-3.40933 -15.17694,-9.54241 -18.64153,-15.64788 -2.85463,-5.030561 -4.56599,-13.579231 -5.37358,-26.842401 l -0.15555,-2.55458 2.70422,-8.1e-4 c 1.48732,-4.4e-4 13.72922,0.268 27.20422,0.59653 13.475,0.32854 30.89144,0.74554 38.7032,0.92667 7.81177,0.18114 14.26772,0.39066 14.34657,0.46561 0.22971,0.21835 -1.0915,6.77928 -2.32735,11.55726 -2.58133,9.97983 -4.93036,14.896301 -9.38151,19.635321 -5.50633,5.86243 -13.28626,10.66093 -21.5303,13.27946 -5.34473,1.69762 -10.66095,2.16643 -16.06188,1.41639 z M 271.125,71.249659 c -71.37524,-4.75774 -73.62028,-4.91853 -74.26305,-5.31886 -0.33221,-0.2069 -0.67947,-0.66196 -0.77169,-1.01123 -0.0922,-0.34927 0.0126,-3.03521 0.23296,-5.96877 0.36761,-4.8939 0.44625,-5.37987 0.95369,-5.89331 0.30418,-0.30777 0.93186,-0.62713 1.39485,-0.70969 1.05067,-0.18736 1.22025,-0.50293 1.42012,-2.64271 0.63327,-6.77964 3.36489,-14.10327 7.43518,-19.93419 2.53557,-3.63234 7.54385,-8.36681 11.47294,-10.84569 8.34688,-5.26609 17.57603,-7.86085 28,-7.87215 2.40625,-0.003 5.44375,0.13228 6.75,0.29975 12.9767,1.66372 24.29295,7.3317 31.86924,15.96238 6.79059,7.73562 10.59022,17.21729 11.51711,28.73999 0.17069,2.12194 0.70788,3.64022 1.53442,4.33676 0.27136,0.22867 2.02905,1.04852 3.90598,1.8219 5.59993,2.3074 5.6104,2.32126 5.25301,6.95685 -0.22881,2.96779 -0.27212,3.13997 -0.92385,3.67284 -0.58977,0.48221 -0.93109,0.55543 -2.48235,0.53248 -0.98921,-0.0146 -15.97356,-0.97149 -33.29856,-2.12635 z m 286.75,-2.86074 c -4.125,-0.10239 -26.175,-0.62248 -49,-1.15574 -22.825,-0.53326 -42.44472,-1.03172 -43.59938,-1.10768 -1.77829,-0.11699 -2.19213,-0.22627 -2.70583,-0.71457 -0.59501,-0.56558 -0.60492,-0.64198 -0.52562,-4.04858 l 0.0808,-3.47211 0.89951,-0.72329 c 0.62448,-0.50215 2.15151,-1.1278 4.99439,-2.04631 3.89942,-1.25985 4.12837,-1.36869 4.79627,-2.28009 0.54245,-0.74022 0.81416,-1.57481 1.19918,-3.68336 3.61471,-19.79637 16.37239,-33.6563 35.52673,-38.59621 8.81035,-2.2721904 19.99029,-2.0826604 28.95892,0.49093 20.07495,5.76059 32.74739,21.76678 32.74979,41.36529 2.2e-4,1.80944 0.0625,1.91506 1.37521,2.33098 1.41013,0.44679 1.55308,1.19919 1.39234,7.32838 l -0.14231,5.42729 -0.70144,0.57302 c -0.80536,0.65792 -1.11241,0.66418 -15.29856,0.31205 z"
     id="path1" /></svg>
