<?xml version="1.0" encoding="UTF-8" standalone="no"?>
<svg
   viewBox="0 0 764.99999 526.99997"
   version="1.1"
   id="svg19"
   sodipodi:docname="logo.svg"
   inkscape:export-filename="str.svg"
   inkscape:export-xdpi="96"
   inkscape:export-ydpi="96"
   inkscape:version="1.3.2 (091e20e, 2023-11-25, custom)"
   width="765"
   height="527"
   xml:space="preserve"
   xmlns:inkscape="http://www.inkscape.org/namespaces/inkscape"
   xmlns:sodipodi="http://sodipodi.sourceforge.net/DTD/sodipodi-0.dtd"
   xmlns="http://www.w3.org/2000/svg"
   xmlns:svg="http://www.w3.org/2000/svg"><sodipodi:namedview
     id="namedview19"
     pagecolor="#505050"
     bordercolor="#ffffff"
     borderopacity="1"
     inkscape:showpageshadow="0"
     inkscape:pageopacity="0"
     inkscape:pagecheckerboard="1"
     inkscape:deskcolor="#505050"
     inkscape:zoom="0.45254834"
     inkscape:cx="162.41359"
     inkscape:cy="264.06019"
     inkscape:window-width="1920"
     inkscape:window-height="1009"
     inkscape:window-x="-8"
     inkscape:window-y="-8"
     inkscape:window-maximized="1"
     inkscape:current-layer="svg19" /><defs
     id="defs1"><style
       id="style1">.cls-1{fill:#60a5a5;}</style></defs><path
     style="fill:#00f6ff;fill-opacity:1"
     d="m 237.83482,457.89334 c -2.69211,-9.746 -1.81558,-14.6983 4.00513,-22.629 5.17617,-7.0524 5.39716,-8.8038 2.69054,-21.3228 -2.91172,-13.4677 -2.83194,-13.8101 6.34005,-27.2121 l 9.28889,-13.5728 -10.77234,-12.48255 c -8.76461,-10.15612 -13.79451,-13.45832 -26.98765,-17.71775 -15.99141,-5.16287 -16.41085,-5.17087 -30.37685,-0.57933 -14.12746,4.64462 -14.16709,4.68705 -16.47085,17.63654 -1.27013,7.1394 -3.39064,12.98069 -4.71225,12.98069 -1.32161,0 -1.82613,-1.98095 -1.12117,-4.40214 0.70496,-2.4212 2.01114,-8.97311 2.90262,-14.55981 1.54982,-9.71235 2.26852,-10.374 16.39483,-15.09317 14.30418,-4.77858 14.80042,-5.24955 15.60587,-14.81096 0.55164,-6.54834 4.20467,-14.44494 10.84287,-23.43857 9.95819,-13.49166 9.99139,-13.61695 6.29847,-23.77158 -2.04186,-5.61464 -3.71248,-11.15531 -3.71248,-12.3126 0,-1.1573 6.41735,-9.0817 14.26077,-17.60979 7.84343,-8.52809 14.26077,-16.40095 14.26077,-17.49523 0,-1.09429 -2.26751,-7.12172 -5.03892,-13.3943 l -5.03892,-11.4047 -16.24366,-0.75261 -16.24366,-0.75261 -4.04683,-13.60212 c -4.09344,-13.75879 -6.44202,-15.85074 -21.23661,-18.91607 -6.89817,-1.42925 -17.79624,-14.9398 -17.6351,-21.86257 0.0445,-1.91201 2.93187,1.02668 6.41635,6.53042 6.7058,10.59179 11.32212,13.42715 22.32793,13.71391 5.1747,0.13483 8.46293,-2.28187 13.84953,-10.17879 l 7.06371,-10.35559 -7.13448,-19.20186 c -10.1129,-27.21806 -10.0894,-27.13512 -6.86594,-24.23291 1.53669,1.38354 6.34597,11.99237 10.68728,23.57518 l 7.89331,21.05965 -8.06206,10.89135 c -8.35648,11.28911 -8.70845,15.90669 -2.43064,31.8884 2.50668,6.38139 3.81619,6.9177 16.89075,6.9177 h 14.1734 l 11.55739,-14.57168 c 9.0687,-11.43392 16.11851,-16.95338 32.73904,-25.63215 31.61139,-16.50659 30.51897,-15.3158 23.76986,-25.91036 -5.19124,-8.14906 -5.43048,-10.0396 -2.63398,-20.81426 2.40812,-9.27824 2.37549,-13.730216 -0.15028,-20.506776 -4.3975,-11.798325 -1.43555,-13.601125 3.50367,-2.132505 3.23879,7.520295 3.43315,11.439931 1.06154,21.407841 -2.54823,10.71023 -2.28458,13.2316 2.15647,20.6235 l 5.05964,8.4215 36.16481,2.11337 c 41.05015,2.39885 73.33338,2.48642 103.78217,0.28151 16.30313,-1.18057 22.57462,-2.77684 28.29462,-7.20177 7.34467,-5.68175 7.34711,-5.69375 4.25156,-20.95879 -3.08647,-15.220256 -3.0644,-15.331896 6.29385,-31.849321 8.27766,-14.61016 14.11095,-22.08663 14.11095,-18.08587 0,0.7258 -4.17201,8.68327 -9.27113,17.68327 -8.56129,15.110785 -9.13397,17.428585 -7.47984,30.272921 0.9852,7.6501 2.99516,13.90928 4.46656,13.90928 2.1631,0 16.85954,-10.38379 28.78833,-20.34043 1.23373,-1.02976 0.17944,-7.114856 -2.34288,-13.522436 -2.72936,-6.933565 -3.6375,-12.566845 -2.24315,-13.914425 4.01701,-3.88225 32.16085,-15.16439 32.16085,-12.89245 0,1.18524 -6.97783,5.09093 -15.50629,8.67929 l -15.5063,6.5243 5.3292,12.042085 5.3292,12.042076 -8.62119,7.14151 c -4.74166,3.92782 -17.08768,12.73997 -27.43561,19.58255 l -18.81441,12.44105 10.38759,13.34789 c 9.59872,12.33419 10.38952,14.57228 10.41293,29.47023 0.0188,12.00122 1.72655,19.65889 6.6807,29.95775 l 6.65537,13.8354 -4.52922,14.56317 c -4.29374,13.80603 -4.2971,15.27758 -0.0646,28.30406 4.5365,13.96219 23.96724,49.00227 27.1085,48.88564 0.94628,-0.0351 8.70019,-5.69507 17.23091,-12.57763 8.53072,-6.88257 16.32287,-12.51376 17.3159,-12.51376 0.99303,0 3.28296,6.50892 5.08874,14.46428 2.78238,12.25775 5.64382,16.86428 18.75738,30.1968 8.51077,8.65289 14.85379,16.33435 14.09561,17.06992 -0.75818,0.73557 -8.39475,-5.70532 -16.97016,-14.31309 -12.90852,-12.95725 -16.12759,-17.97395 -18.70608,-29.15217 -3.50715,-15.20414 -1.23638,-15.55077 -25.16348,3.84112 l -13.40749,10.8662 -9.25471,-15.85765 c -5.09009,-8.72171 -10.39485,-17.55563 -11.78835,-19.63094 -2.07003,-3.08283 -5.75174,-0.70773 -20.12012,12.97967 l -17.58646,16.75296 -33.9028,-2.73606 -33.90279,-2.73606 -21.49802,15.87691 -21.49801,15.87691 -17.19948,-1.61425 c -16.66071,-1.56368 -18.1657,-1.20316 -48.04446,11.50915 -29.6288,12.60599 -31.20073,13.66289 -39.86755,26.80719 -8.92045,13.529 -8.9871,13.8376 -5.8898,27.265 2.99225,12.9719 2.83744,13.9567 -3.45171,21.9563 -5.27639,6.7114 -6.28164,10.1858 -5.06006,17.4889 1.67587,10.0191 -0.2226,12.4426 -2.70558,3.4538 z m 35.0135,-99.49096 c -9.07832,-0.41606 -17.14147,-0.14001 -17.9181,0.61346 -0.77664,0.75347 0.61432,3.54229 3.09101,6.19738 4.43468,4.7541 4.70684,4.74478 17.9181,-0.61346 l 13.41503,-5.44089 z m 25.07492,-13.90443 0.79029,-11.75212 40.69559,-0.42288 c 26.31811,-0.27348 35.19934,-0.94002 25.13839,-1.88664 l -15.5572,-1.46377 -0.79028,-11.94875 -0.79029,-11.94876 h 38.85474 c 38.26611,0 38.8673,0.0854 39.6833,5.63424 1.22954,8.36098 9.90359,9.09584 9.90359,0.83903 v -6.47327 h 25.77565 c 14.38687,0 26.48369,-1.11147 27.37813,-2.51553 0.9554,-1.49976 -2.18115,-2.51553 -7.76765,-2.51553 h -9.37012 l 0.79028,-11.94875 0.79028,-11.94876 14.26078,-1.47662 c 9.93913,-1.02914 4.24242,-1.60088 -18.79829,-1.88665 l -33.05906,-0.41002 V 259.79553 247.2179 h 32.41084 c 19.87865,0 32.41084,-0.97267 32.41084,-2.51553 0,-1.38354 -6.48127,-2.51553 -14.40283,-2.51553 h -14.40284 l 0.79028,-11.94875 0.79028,-11.94876 12.96434,-1.49145 c 8.69497,-1.00029 2.50439,-1.62159 -18.79829,-1.88664 l -31.76262,-0.3952 V 201.9384 189.36076 h 27.22511 c 16.42149,0 27.2251,-0.99822 27.2251,-2.51552 0,-1.38354 -4.08376,-2.51553 -9.07503,-2.51553 -9.01201,0 -9.07504,-0.0778 -9.07504,-11.19488 0,-8.00799 1.29171,-11.92478 4.53752,-13.7589 3.33936,-1.88699 -1.3734,-2.58423 -17.84766,-2.64053 -20.18481,-0.069 -22.51876,-0.57205 -23.74408,-5.11793 -1.53098,-5.67983 -9.61739,-4.38726 -9.61739,1.53728 0,2.83945 -7.37764,3.50416 -38.89301,3.50416 -37.16444,0 -38.89302,-0.22361 -38.89302,-5.03106 0,-6.48412 -6.76114,-6.56192 -8.5035,-0.0978 -1.182,4.38515 -4.01166,5.01394 -25.47062,5.65994 l -24.14089,0.72673 0.72223,13.09745 0.72223,13.09746 -20.14258,0.73794 -20.14258,0.73795 0.6978,14.46429 c 0.5056,10.48038 -0.24668,14.59336 -2.73128,14.93293 -1.88599,0.25776 6.48865,1.10675 18.6103,1.88665 l 22.03938,1.41799 0.79028,11.94876 0.79028,11.94875 h -24.62128 c -13.61729,0 -25.33748,1.12427 -26.22376,2.51553 -0.90886,1.4267 1.2695,2.51553 5.03271,2.51553 6.23365,0 6.63519,0.76115 6.63519,12.57763 v 12.57764 l -14.90899,0.51358 c -8.19994,0.28247 0.25929,1.13146 18.79829,1.88664 l 33.70728,1.37307 0.79028,11.94876 0.79028,11.94875 h -34.99275 c -20.5316,0 -35.655,1.03957 -36.59523,2.51553 -1.00611,1.57936 4.72666,2.51553 15.40418,2.51553 h 17.00666 v 12.57764 12.57763 h -22.03937 c -12.12166,0 -22.04065,0.84899 -22.0422,1.88665 -0.002,1.03766 18.3754,1.88665 40.83766,1.88665 h 40.84049 l 0.79708,12.11024 c 1.03293,15.6935 6.68687,14.51795 7.7718,-1.61589 z m -37.32777,-17.73392 c -0.78346,-1.98075 -1.05056,-7.38809 -0.59356,-12.0163 l 0.83091,-8.41494 39.68608,-0.69516 39.68608,-0.69515 -0.79307,12.01503 -0.79307,12.01503 -38.29945,0.69643 c -31.31581,0.56945 -38.5592,0.0398 -39.72392,-2.90494 z m 37.83392,-39.29769 V 274.8887 h 38.89301 38.89302 v 12.57764 12.57763 H 337.3224 298.42939 Z m 88.1575,-0.0672 v -12.64489 l 38.24479,0.69613 38.2448,0.69613 0.79028,11.94876 0.79028,11.94875 H 425.62196 386.58689 Z M 260.59547,268.90695 c -0.78346,-1.98075 -1.05056,-7.38809 -0.59356,-12.01631 l 0.83091,-8.41493 39.68608,-0.69516 39.68608,-0.69516 -0.79307,12.01504 -0.79307,12.01503 -38.29945,0.69643 c -31.31581,0.56945 -38.5592,0.0397 -39.72392,-2.90494 z m 88.82698,1.78925 c -0.95072,-0.92236 -1.72858,-6.58229 -1.72858,-12.57763 v -10.90062 h 38.89302 38.89301 v 12.57763 12.57764 h -37.16444 c -20.44043,0 -37.94229,-0.75466 -38.89301,-1.67702 z m -50.99306,-41.08695 v -12.57763 h 38.89301 38.89302 v 12.57763 12.57764 H 337.3224 298.42939 Z m 88.1575,-0.0672 v -12.64489 l 38.24479,0.69613 38.2448,0.69613 0.79028,11.94876 0.79028,11.94875 H 425.62196 386.58689 Z M 260.59547,211.04986 c -0.78346,-1.98076 -1.05056,-7.38809 -0.59356,-12.01631 l 0.83091,-8.41493 39.68608,-0.69516 39.68608,-0.69516 -0.79307,12.01503 -0.79307,12.01504 -38.29945,0.69643 c -31.31581,0.56944 -38.5592,0.0397 -39.72392,-2.90494 z m 87.0984,-9.11137 v -12.57764 h 38.89302 38.89301 v 12.57764 12.57764 h -38.89301 -38.89302 z m -48.75833,-29.55745 0.79029,-11.94875 38.24479,-0.69613 38.2448,-0.69613 v 12.64488 12.64489 h -39.03508 -39.03508 z m 87.65135,-0.69613 v -12.64488 l 38.24479,0.69613 38.2448,0.69613 0.79028,11.94875 0.79028,11.94876 h -39.03508 -39.03507 z"
     id="path3" /></svg>
