<?xml version="1.0" encoding="UTF-8" standalone="no"?>
<svg
   viewBox="0 0 764.99999 526.99997"
   version="1.1"
   id="svg19"
   sodipodi:docname="logo.svg"
   inkscape:export-filename="pmc.svg"
   inkscape:export-xdpi="96"
   inkscape:export-ydpi="96"
   inkscape:version="1.3.2 (091e20e, 2023-11-25, custom)"
   width="765"
   height="527"
   xml:space="preserve"
   xmlns:inkscape="http://www.inkscape.org/namespaces/inkscape"
   xmlns:sodipodi="http://sodipodi.sourceforge.net/DTD/sodipodi-0.dtd"
   xmlns="http://www.w3.org/2000/svg"
   xmlns:svg="http://www.w3.org/2000/svg"><sodipodi:namedview
     id="namedview19"
     pagecolor="#505050"
     bordercolor="#ffffff"
     borderopacity="1"
     inkscape:showpageshadow="0"
     inkscape:pageopacity="0"
     inkscape:pagecheckerboard="1"
     inkscape:deskcolor="#505050"
     inkscape:zoom="0.45254834"
     inkscape:cx="162.41359"
     inkscape:cy="264.06019"
     inkscape:window-width="1920"
     inkscape:window-height="1009"
     inkscape:window-x="-8"
     inkscape:window-y="-8"
     inkscape:window-maximized="1"
     inkscape:current-layer="svg19" /><defs
     id="defs1"><style
       id="style1">.cls-1{fill:#60a5a5;}</style></defs><path
     style="fill:#00f6ff;fill-opacity:1"
     d="m 341.13989,394.7997 c -8.42164,-2.25078 -28.45998,-7.54152 -31.72631,-8.37672 -1.32528,-0.33887 -5.30111,-1.41335 -8.83518,-2.38773 -3.53407,-0.97438 -7.5099,-2.04472 -8.83517,-2.37852 -1.32528,-0.33381 -5.30111,-1.40171 -8.83518,-2.37312 -3.53407,-0.97141 -8.23278,-2.22143 -10.44157,-2.77782 -6.12369,-1.54254 -19.90083,-5.21479 -48.59346,-12.95241 l -26.10393,-7.03952 v -16.87544 c 0,-14.17587 0.19273,-16.98196 1.20479,-17.54132 0.66264,-0.36624 5.54207,-2.41441 10.84317,-4.55149 5.30111,-2.13708 14.69852,-5.93433 20.88315,-8.43832 6.18462,-2.504 12.44437,-5.0357 13.91054,-5.62601 l 2.66578,-1.0733 -0.25618,-17.65829 -0.25619,-17.6583 -2.28834,-3.77142 c -6.22046,-10.25196 -19.7184,-16.27455 -39.67874,-17.7041 l -7.42958,-0.5321 v -16.8476 -16.84761 l 2.20879,-0.82703 c 2.04593,-0.76606 7.0112,-2.46926 36.3447,-12.46706 5.96375,-2.03264 13.73468,-4.71144 17.26875,-5.9529 11.3469,-3.98596 19.82359,-6.91272 30.92312,-10.67687 5.96374,-2.02247 13.73468,-4.68765 17.26875,-5.92263 3.53407,-1.23498 11.84717,-4.09668 18.47355,-6.35934 6.62638,-2.26265 14.39732,-4.94166 17.26875,-5.95334 2.87143,-1.01169 10.64237,-3.69069 17.26875,-5.95335 6.62638,-2.26266 14.93948,-5.12436 18.47355,-6.35934 3.53407,-1.23498 11.30501,-3.90016 17.26875,-5.92263 5.96375,-2.02246 13.73468,-4.69143 17.26876,-5.93102 17.64017,-6.1874 25.56653,-8.73651 27.16576,-8.73651 0.96779,0 8.44392,1.82292 16.61364,4.05094 8.16972,2.22802 15.93835,4.32685 17.26363,4.66408 1.32527,0.33722 5.3011,1.41035 8.83517,2.38473 3.53407,0.97438 7.5099,2.04472 8.83518,2.37852 1.32527,0.33381 5.3011,1.39681 8.83517,2.36223 8.45192,2.30885 8.92721,2.4374 42.75534,11.56319 21.33045,5.75431 28.83687,8.07761 28.11192,8.70091 -0.54398,0.46769 -2.97697,1.61202 -5.40664,2.54295 -2.42967,0.93092 -14.89932,5.77977 -27.71032,10.77521 -12.81101,4.99544 -30.3408,11.82884 -38.9551,15.18533 -18.13149,7.0648 -40.57713,15.83602 -70.6814,27.62063 -11.70661,4.58267 -27.4292,10.69762 -34.9391,13.58878 -7.5099,2.89115 -14.73868,5.73818 -16.06396,6.32671 -1.32527,0.58853 -4.30714,1.72538 -6.62638,2.52632 l -4.21679,1.45626 v 16.34288 16.34288 l 13.45357,-5.34058 c 7.39946,-2.93732 23.93529,-9.49188 36.74629,-14.56569 12.81101,-5.07381 24.01562,-9.56495 24.89913,-9.98032 0.88352,-0.41538 11.90741,-4.83266 24.49754,-9.81619 12.59012,-4.98354 30.11991,-11.97441 38.95509,-15.53528 8.83517,-3.56087 16.7048,-6.67122 17.48805,-6.91188 1.33308,-0.40961 1.41008,0.49339 1.2048,14.129 l -0.2193,14.56657 -17.67035,7.41864 c -9.7187,4.08026 -38.09166,15.98767 -63.05103,26.46091 -83.71994,35.12987 -116.85445,49.05616 -118.47167,49.79312 -0.88352,0.40262 -2.50999,1.08297 -3.61439,1.5119 -9.1406,3.55 -14.81264,6.19318 -15.45832,7.20358 -0.4935,0.77227 -0.45886,2.32408 0.0972,4.35474 2.71936,9.93074 17.0293,17.4058 38.69065,20.21078 l 6.86398,0.88883 17.63355,-7.50263 c 15.65112,-6.65915 20.46283,-8.73675 29.68153,-12.81588 2.38563,-1.0556 44.76983,-19.16547 120.06157,-51.29975 21.41623,-9.14039 40.57249,-17.3543 42.56948,-18.25314 6.61813,-2.97881 10.58215,-4.58233 11.32785,-4.58233 0.42082,0 0.73266,6.3731 0.72739,14.86574 l -0.009,14.86575 -3.00278,1.36698 c -1.65152,0.75184 -7.52076,3.38262 -13.04275,5.84619 -5.52198,2.46356 -12.6868,5.68378 -15.92181,7.15604 -3.23501,1.47226 -6.00028,2.67684 -6.14503,2.67684 -0.14475,0 -3.28095,1.38857 -6.96932,3.08571 -3.68838,1.69715 -10.32053,4.69083 -14.73811,6.65262 -4.41759,1.9618 -10.38134,4.63107 -13.25277,5.93172 -2.87143,1.30065 -9.37733,4.22507 -14.45756,6.49872 -20.98922,9.3937 -25.57449,11.45299 -31.18257,14.00441 -3.23501,1.47178 -6.00027,2.67597 -6.14503,2.67597 -0.14475,0 -3.28095,1.38786 -6.96932,3.08413 -13.20943,6.07499 -19.27748,8.80846 -19.55395,8.80846 -0.15451,0 -4.13185,1.78389 -8.83852,3.9642 -4.70668,2.18031 -8.69662,3.9642 -8.86654,3.9642 -0.16992,0 -2.94317,1.21875 -6.16278,2.70832 -3.2196,1.48958 -10.01038,4.56729 -15.0906,6.83937 -5.08023,2.27207 -11.48396,5.14684 -14.23051,6.38837 -5.93388,2.68231 -14.54391,6.28321 -14.86121,6.21528 -0.12375,-0.0265 -3.29723,-0.86926 -7.05218,-1.87281 z"
     id="path2"
     inkscape:export-filename="str.svg"
     inkscape:export-xdpi="96"
     inkscape:export-ydpi="96" /></svg>
